<svg width="98" height="38" viewBox="0 0 98 38" fill="none" xmlns="http://www.w3.org/2000/svg">
<g clip-path="url(#clip0_0_4736)">
<path d="M33.5701 8.22363L30.7613 19.3553C30.5076 20.2761 29.9495 21.0843 29.1774 21.649C28.445 22.2553 27.5272 22.5942 26.5755 22.6097L30.2096 8.22363H25.7217L25.2461 10.4059L21.6572 24.7895H26.0285C28.1595 24.7895 30.1866 23.9989 32.1098 22.4176C34.0331 20.8362 35.2571 18.9948 35.7819 16.8932L37.4063 10.4153L37.9533 8.23312L33.5701 8.22363Z" fill="#E50539"/>
<path d="M41.5961 20.9824C41.6059 20.9268 41.6203 20.872 41.6389 20.8187C41.6556 20.7755 41.6691 20.7311 41.6793 20.6859L44.8068 8.2235H37.5625L37.0107 10.4057H39.9099L37.3057 20.6882C37.2612 20.8161 37.2293 20.948 37.2105 21.082C37.025 22.2111 37.3128 23.1029 38.0738 23.7671C38.8349 24.4312 39.9646 24.7586 41.4677 24.7586H42.1312L42.6854 22.5787C41.803 22.4482 41.4415 21.9169 41.5961 20.9824ZM45.6987 1.42541C45.5214 1.2126 45.2976 1.04315 45.0445 0.930076C44.7914 0.816997 44.5156 0.763299 44.2384 0.773112C43.622 0.779409 43.0294 1.01158 42.5736 1.42541C42.0921 1.81952 41.7695 2.37375 41.6651 2.98617C41.6051 3.26415 41.6093 3.55208 41.6772 3.82822C41.7452 4.10436 41.8752 4.36147 42.0575 4.58014C42.2334 4.79326 42.4563 4.96301 42.7087 5.07615C42.9612 5.18929 43.2364 5.24277 43.513 5.23243C44.1365 5.22711 44.7354 4.98936 45.1921 4.56591C45.6736 4.16344 45.9964 3.60367 46.103 2.98617C46.1566 2.71241 46.1481 2.43015 46.0782 2.16008C46.0082 1.89001 45.8785 1.63899 45.6987 1.42541Z" fill="#E50539"/>
<path d="M57.7171 21.3715C57.7255 21.3266 57.739 21.2828 57.7576 21.2411C57.7741 21.1998 57.7861 21.1569 57.7932 21.113L61.0229 8.22366H53.4861C51.928 8.21927 50.4038 8.67755 49.1077 9.54011C47.7536 10.4177 46.9149 11.5176 46.5914 12.8395L44.7697 20.131C44.7242 20.2692 44.6915 20.4114 44.6722 20.5556C44.5582 21.1064 44.5975 21.6777 44.7857 22.2079C44.9739 22.738 45.3039 23.2067 45.74 23.5632C46.6533 24.3539 47.8504 24.7492 49.3312 24.7492H50.0162C51.3252 24.7353 52.5877 24.2635 53.5836 23.4162C54.1354 24.3065 55.1716 24.7508 56.6921 24.7492H58.2285L58.7802 22.5694C57.9502 22.5314 57.5911 22.1306 57.7171 21.3715ZM53.6455 20.1357C53.4613 20.8237 53.052 21.4307 52.4825 21.8602C51.9502 22.3103 51.2776 22.5618 50.5799 22.5718C49.3194 22.5718 48.789 21.9669 48.9864 20.7477C48.9864 20.7287 49.0054 20.6742 49.0292 20.5864C49.0493 20.5219 49.0652 20.4561 49.0768 20.3895L51.1697 12.0307C51.4551 10.9491 52.0552 10.4075 52.97 10.4059H56.1046L53.6455 20.1357Z" fill="#E50539"/>
<path d="M82.2544 9.41202C81.3507 8.62136 80.1615 8.22603 78.687 8.22603H78.0044C76.4314 8.21468 74.892 8.68039 73.5903 9.56145C72.2585 10.4517 71.4316 11.5468 71.1098 12.8466L69.2428 20.1357C69.1964 20.2739 69.1629 20.416 69.1429 20.5603C68.9384 21.7961 69.2927 22.8018 70.2108 23.587C71.1288 24.3721 72.337 24.7563 73.8353 24.7563H74.4869C76.0568 24.7618 77.5913 24.2911 78.8868 23.4067C80.2313 22.5085 81.0637 21.4182 81.384 20.1357L83.2343 12.8443L83.3033 12.4268C83.4176 11.8767 83.3805 11.3059 83.1958 10.7751C83.0111 10.2443 82.6859 9.77331 82.2544 9.41202ZM78.9248 12.4956L78.8678 12.8514L77.0507 20.1429C76.9099 20.8217 76.5802 21.4473 76.0994 21.9479C75.9237 22.1392 75.7118 22.2938 75.4759 22.4029C75.2399 22.512 74.9846 22.5734 74.7248 22.5836C74.5197 22.5888 74.3173 22.5364 74.1407 22.4324C73.9641 22.3284 73.8203 22.1769 73.7259 21.9954C73.486 21.5358 73.4169 21.0065 73.5309 20.501C73.5427 20.4407 73.5586 20.3813 73.5784 20.3231C73.5975 20.2641 73.6126 20.2039 73.6236 20.1429L75.4406 12.8514C75.5882 12.2039 75.9002 11.6052 76.3468 11.1127C76.5215 10.9075 76.7381 10.7417 76.9821 10.6264C77.2261 10.511 77.4919 10.4488 77.7619 10.4438C77.9602 10.4356 78.1571 10.4814 78.3314 10.5762C78.5057 10.6711 78.6508 10.8114 78.7512 10.9823C78.9724 11.3357 79.0366 11.8386 78.9248 12.4885V12.4956Z" fill="#E50539"/>
<path d="M95.7158 8.22374C94.08 8.18406 92.4756 8.67609 91.1447 9.62558L91.4729 8.22374H87.1206L82.9443 24.7564H87.318L89.5893 15.7073C89.9036 14.5527 90.4861 13.4882 91.2898 12.6C92.0465 11.6924 93.0314 11.0015 94.1437 10.5981L93.6229 12.7447H96.0012L97.1666 8.21899L95.7158 8.22374Z" fill="#E50539"/>
<path d="M22.2492 2.00669C21.2503 1.18599 19.9026 0.77484 18.2061 0.773259C16.474 0.740906 14.7714 1.2222 13.3139 2.15612C11.9705 2.97745 11.0052 4.293 10.6264 5.81846L8.80942 13.0079H4.74967C4.37843 13.0098 4.0112 13.0846 3.66896 13.2281C3.32672 13.3716 3.0162 13.5809 2.75513 13.8442C2.49405 14.1074 2.28756 14.4194 2.14744 14.7623C2.00732 15.1051 1.93633 15.4722 1.93853 15.8424H8.09593L5.85082 24.7563H10.1865L12.4387 15.8424H16.3867L14.9859 21.3739C14.9398 21.5112 14.9071 21.6526 14.8883 21.7961C14.7338 22.7283 14.9169 23.4565 15.4449 23.9783C15.9729 24.5002 16.7601 24.7563 17.8232 24.7563H19.5546L20.1111 22.5741C19.4832 22.5314 19.224 22.1946 19.3286 21.5708L23.2909 5.81846C23.3042 5.73112 23.3233 5.64475 23.3479 5.55991C23.3725 5.47182 23.3915 5.38231 23.405 5.29188C23.6286 3.93036 23.2433 2.8353 22.2492 2.00669ZM13.1165 13.0554V13.0079L15.1238 5.20175C15.2536 4.57891 15.5784 4.01329 16.0513 3.58643C16.4825 3.1828 17.0511 2.95732 17.6424 2.95548C17.8758 2.9384 18.1098 2.9803 18.3226 3.07732C18.5354 3.17434 18.7203 3.32334 18.8601 3.51052C18.9946 3.71437 19.0868 3.943 19.1313 4.18294C19.1758 4.42288 19.1718 4.66927 19.1193 4.90762L19.0718 5.20175L17.0645 13.0079L17.0502 13.0554H13.1165Z" fill="#E50539"/>
<path d="M69.1319 8.2236L70.1236 4.38574H65.7499L64.7986 8.2236H62.6582L62.1016 10.4058H64.2421L61.626 20.7192C61.626 20.7643 61.5998 20.8402 61.5713 20.9564C61.5504 21.0345 61.5337 21.1137 61.5213 21.1936C61.3382 22.2989 61.5523 23.1694 62.1635 23.8028C62.7747 24.4361 63.7046 24.7515 64.9437 24.7515H66.4801L67.039 22.5385C66.14 22.4555 65.7666 21.9431 65.9188 21.0109C65.9296 20.9553 65.9447 20.9006 65.964 20.8473C65.9787 20.8038 65.9907 20.7594 65.9997 20.7144L68.6158 10.4011H70.4756L71.0321 8.21886L69.1319 8.2236Z" fill="#E50539"/>
<path d="M62.634 30.1265H36.487C35.8303 30.1265 35.2979 30.6575 35.2979 31.3125C35.2979 31.9675 35.8303 32.4984 36.487 32.4984H62.634C63.2907 32.4984 63.8231 31.9675 63.8231 31.3125C63.8231 30.6575 63.2907 30.1265 62.634 30.1265Z" fill="#E50539"/>
<path d="M57.8786 34.7922H41.2448C40.5881 34.7922 40.0557 35.3232 40.0557 35.9782C40.0557 36.6332 40.5881 37.1642 41.2448 37.1642H57.8786C58.5354 37.1642 59.0678 36.6332 59.0678 35.9782C59.0678 35.3232 58.5354 34.7922 57.8786 34.7922Z" fill="#E50539"/>
</g>
<defs>
<clipPath id="clip0_0_4736">
<rect width="97.2125" height="36.9408" fill="white" transform="translate(-0.000976562 0.223389)"/>
</clipPath>
</defs>
</svg>
