<svg width="138" height="44" viewBox="0 0 138 44" fill="none" xmlns="http://www.w3.org/2000/svg">
<path d="M21.1206 0H22.3538C26.0489 0.130273 29.7132 1.18571 32.8762 3.1089C36.4741 5.27497 39.4196 8.50752 41.2357 12.2954C43.011 15.9651 43.6999 20.1438 43.2296 24.1911C42.8575 27.4645 41.7204 30.6474 39.9352 33.4162C38.0783 36.3088 35.5236 38.7486 32.5505 40.472C29.467 42.2726 25.9319 43.2585 22.3671 43.3877H21.2222C15.5995 43.2883 10.0695 40.8838 6.16348 36.8387C12.4983 36.8343 18.832 36.8376 25.1668 36.8365C26.4872 36.8221 27.8264 36.9182 29.1236 36.6079C31.3504 36.1211 33.3818 34.8073 34.7486 32.9846C36.0104 31.323 36.706 29.2442 36.6982 27.1576C36.7038 25.0986 36.027 23.0463 34.7949 21.3969C33.8941 20.178 32.7006 19.1844 31.3504 18.4988C32.4103 17.2568 33.0329 15.6494 33.0572 14.0154C33.1047 12.1883 32.407 10.3578 31.1572 9.0253C29.86 7.61548 27.9743 6.7698 26.0578 6.75324C20.4726 6.74662 14.8874 6.75435 9.30218 6.74883C9.28231 8.32536 10.3333 9.83675 11.816 10.3678C12.2444 10.5345 12.7036 10.5941 13.1596 10.6173C13.1629 13.1344 13.1618 15.6516 13.1607 18.1687C9.03833 17.4014 4.91926 16.6187 0.796875 15.8514C2.18351 10.8304 5.46243 6.37015 9.82659 3.52953C13.1662 1.32923 17.1263 0.111505 21.1206 0Z" fill="#FFC42E"/>
<path d="M17.9336 18.505C18.7925 15.894 19.6106 13.2698 20.496 10.6687C21.3538 13.2786 22.194 15.894 23.0451 18.5061C25.7986 18.5149 28.552 18.5028 31.3054 18.5116C29.1625 20.0859 27.0074 21.6448 24.8535 23.2048C24.7796 23.2809 24.583 23.3383 24.6625 23.4797C25.4983 26.0675 26.345 28.6531 27.1797 31.242C24.9452 29.6257 22.7206 27.9962 20.4849 26.3821C15.7046 29.862 10.9187 33.3341 6.13831 36.8128C5.48363 36.1405 4.87421 35.4251 4.31117 34.6743C7.84069 32.1616 11.3735 29.6555 14.9042 27.145C15.1448 26.9661 15.4175 26.8204 15.6085 26.5819C15.4253 26.4859 15.2552 26.6228 15.0907 26.6824C10.9794 28.5493 6.86585 30.4129 2.7512 32.2709C2.26212 31.3987 1.83597 30.4923 1.47165 29.5617C5.7795 27.7014 10.1061 25.8864 14.4129 24.0239C14.5266 23.9389 14.8291 23.9378 14.6911 23.7115C9.99131 24.7173 5.31582 25.8334 0.620455 26.8601C0.389716 25.9151 0.22301 24.9546 0.121441 23.9886C4.64679 23.0899 9.17103 22.1791 13.6975 21.2849C13.8454 21.2838 13.926 21.2087 13.9359 21.0586C9.29137 21.0497 4.64458 21.0376 0 21.0641V21.0354C0.0485765 20.1886 0.104881 19.3407 0.235155 18.5028C6.13499 18.4984 12.0337 18.5105 17.9336 18.505Z" fill="white"/>
<path d="M71.995 11.0595C72.5724 10.9061 73.2205 10.9392 73.7471 11.2373C74.4106 11.6204 74.8522 12.3678 74.8412 13.1373C74.8555 13.8748 74.4658 14.6023 73.8476 15.0031C73.3254 15.3332 72.6641 15.384 72.0712 15.2493C71.1361 15.0307 70.4737 14.0845 70.4958 13.1395C70.4803 12.2243 71.1008 11.3079 71.995 11.0595Z" fill="white"/>
<path d="M87.007 11.5529C88.3594 11.5507 89.7118 11.5507 91.0631 11.5529C91.0631 13.2906 91.0631 15.0295 91.0642 16.7672C92.3923 16.7716 93.7205 16.7617 95.0497 16.7727C97.07 16.8191 99.1511 17.3081 100.791 18.5358C102.174 19.5592 103.12 21.1369 103.398 22.8337C103.712 24.7271 103.451 26.7806 102.368 28.4002C101.379 29.9193 99.7517 30.9272 98.0261 31.4053C96.9188 31.7199 95.7618 31.8425 94.6125 31.838C92.0777 31.8369 89.5418 31.8392 87.007 31.8369C87.007 25.0749 87.007 18.3139 87.007 11.5529ZM91.0686 18.7952C91.0565 22.4661 91.0664 26.138 91.0631 29.8089C92.3217 29.8078 93.5802 29.8133 94.8388 29.8056C95.9881 29.789 97.1937 29.4015 97.9488 28.4951C98.9259 27.3392 99.1798 25.7616 99.1743 24.2921C99.1776 22.8216 98.9181 21.2417 97.9323 20.0925C97.1771 19.1982 95.9815 18.8162 94.8421 18.7997C93.5847 18.7919 92.3261 18.8008 91.0686 18.7952Z" fill="#FFC42E"/>
<path d="M126.989 12.132C128.34 12.1298 129.692 12.1309 131.044 12.1309C131.046 13.6765 131.043 15.2221 131.045 16.7677C132.542 16.7677 134.039 16.7655 135.535 16.7688C135.535 17.4445 135.535 18.1191 135.535 18.7947C134.039 18.798 132.542 18.7958 131.046 18.7958C131.044 21.3273 131.044 23.8577 131.045 26.3892C131.047 27.3872 131.217 28.436 131.812 29.2641C132.271 29.9055 133.022 30.3129 133.806 30.3747C134.973 30.4663 136.113 30.0645 137.13 29.5235C137.421 30.1429 137.697 30.7699 137.998 31.3849V31.4014C135.751 32.5143 133.062 32.7472 130.681 31.9358C129.127 31.4069 127.826 30.1517 127.325 28.5785C126.903 27.3773 126.996 26.0911 126.989 24.8414C126.988 22.8266 126.99 20.8117 126.988 18.7958C126.07 18.7947 125.153 18.7991 124.235 18.7936C124.236 18.1191 124.235 17.4434 124.236 16.7688C125.153 16.7655 126.07 16.7688 126.989 16.7666C126.99 15.2221 126.988 13.6765 126.989 12.132Z" fill="#FFC42E"/>
<path d="M108.543 18.2422C109.803 17.0941 111.466 16.4637 113.144 16.2683C115.185 16.0287 117.332 16.3014 119.151 17.2994C121.011 18.3129 122.389 20.1765 122.787 22.2597C123.021 23.4576 122.908 24.683 122.934 25.8952C118.811 25.8963 114.687 25.8952 110.564 25.8963C110.746 27.1395 111.162 28.4455 112.154 29.2823C113.276 30.2296 114.821 30.4923 116.247 30.3566C117.856 30.2285 119.342 29.4656 120.61 28.5051C120.991 29.0869 121.425 29.6544 121.753 30.2583C120.729 31.1658 119.433 31.7123 118.118 32.0446C116.06 32.5767 113.865 32.527 111.817 31.9728C110.036 31.4893 108.36 30.4394 107.36 28.8606C106.225 27.1339 105.973 24.9745 106.213 22.9597C106.422 21.1866 107.205 19.4478 108.543 18.2422ZM111.804 19.2855C110.78 20.5673 110.508 22.2697 110.477 23.8661C113.181 23.8672 115.885 23.8672 118.59 23.8672C118.594 22.1813 118.231 20.3575 117.024 19.1056C115.659 17.677 113.051 17.7267 111.804 19.2855Z" fill="#FFC42E"/>
<path d="M50.65 11.5512C52.0013 11.55 53.3526 11.5523 54.704 11.55C54.7073 13.29 54.704 15.0288 54.7062 16.7676C57.0445 16.8305 59.4424 16.5402 61.7189 17.2147C63.4246 17.6961 65.0298 18.7007 66.009 20.2033C67.1086 21.845 67.3626 23.9338 67.0269 25.8503C66.741 27.4743 65.8423 28.9835 64.5341 29.9915C62.8626 31.2909 60.7043 31.7965 58.6199 31.8341C55.9636 31.8407 53.3063 31.8352 50.65 31.8363C50.6489 25.0753 50.65 18.3132 50.65 11.5512ZM54.7062 18.7957C54.704 22.4665 54.7062 26.1374 54.7062 29.8082C55.9747 29.806 57.2443 29.8137 58.5139 29.8049C59.6334 29.7806 60.8036 29.4074 61.5521 28.5386C62.5623 27.3816 62.8229 25.7775 62.8173 24.2892C62.8207 22.8253 62.5623 21.2532 61.5864 20.1039C60.839 19.2108 59.6499 18.8222 58.515 18.8001C57.2454 18.7902 55.9758 18.799 54.7062 18.7957Z" fill="white"/>
<path d="M78.8917 11.5513C80.2441 11.5513 81.5954 11.5513 82.9479 11.5513C82.9479 18.3133 82.9479 25.0754 82.9479 31.8364C81.5954 31.8375 80.2441 31.8375 78.8917 31.8364C78.8917 25.0754 78.8917 18.3133 78.8917 11.5513Z" fill="white"/>
<path d="M70.63 17.0675C71.9824 17.0399 73.337 17.0642 74.6906 17.0565C74.6906 21.9826 74.6928 26.9098 74.6906 31.837C73.3381 31.8359 71.9868 31.837 70.6355 31.8359C70.6311 26.9131 70.6421 21.9903 70.63 17.0675Z" fill="white"/>
<path d="M9.30273 6.74878C14.8879 6.7543 20.4731 6.74657 26.0583 6.7532C27.9749 6.76976 29.8605 7.61543 31.1578 9.02525C32.4075 10.3578 33.1052 12.1882 33.0578 14.0154C33.0335 15.6493 32.4108 17.2568 31.351 18.4988C32.7012 19.1844 33.8946 20.178 34.7955 21.3968C36.0275 23.0462 36.7043 25.0986 36.6988 27.1575C36.7065 29.2441 36.011 31.323 34.7491 32.9845C33.3823 34.8072 31.351 36.121 29.1242 36.6079C27.827 36.9181 26.4878 36.8221 25.1674 36.8364C18.8326 36.8375 12.4988 36.8342 6.16402 36.8386C6.1574 36.832 6.14415 36.8199 6.13753 36.8132C10.9179 33.3345 15.7038 29.8624 20.4842 26.3825C22.7198 27.9966 24.9444 29.6261 27.1789 31.2424C26.3443 28.6535 25.4975 26.0679 24.6617 23.4801C24.5823 23.3388 24.7788 23.2814 24.8527 23.2052C27.0067 21.6452 29.1617 20.0863 31.3046 18.512C28.5512 18.5032 25.7978 18.5153 23.0444 18.5065C22.1932 15.8944 21.353 13.279 20.4952 10.6691C19.6098 13.2702 18.7917 15.8944 17.9328 18.5054C12.033 18.5109 6.13422 18.4988 0.234375 18.5032C0.365752 17.6089 0.555643 16.7224 0.797421 15.8514C4.9198 16.6186 9.03887 17.4014 13.1613 18.1687C13.1624 15.6515 13.1635 13.1344 13.1601 10.6172C12.7042 10.5941 12.2449 10.5344 11.8166 10.3677C10.3339 9.8367 9.28286 8.32531 9.30273 6.74878Z" fill="#393683"/>
<path d="M0 21.0649C4.64458 21.0385 9.29137 21.0506 13.9359 21.0594C13.926 21.2096 13.8454 21.2846 13.6975 21.2858C9.17103 22.18 4.64679 23.0908 0.121441 23.9895C0.0640327 23.486 0.0452645 22.9804 0 22.4759V21.0649Z" fill="#393683"/>
<path d="M0.617188 26.861C5.31255 25.8343 9.98805 24.7182 14.6878 23.7124C14.8258 23.9387 14.5233 23.9398 14.4096 24.0248C10.1029 25.8873 5.77624 27.7023 1.46838 29.5626C1.12614 28.6816 0.841302 27.7785 0.617188 26.861Z" fill="#393683"/>
<path d="M15.0932 26.6825C15.2577 26.6229 15.4277 26.486 15.611 26.582C15.42 26.8205 15.1473 26.9662 14.9066 27.1451C11.376 29.6556 7.84316 32.1617 4.31363 34.6744C3.74286 33.9083 3.21956 33.1056 2.75366 32.271C6.86832 30.413 10.9819 28.5494 15.0932 26.6825Z" fill="#393683"/>
</svg>
