<svg width="53" height="23" viewBox="0 0 53 23" fill="none" xmlns="http://www.w3.org/2000/svg">
<g id="c3aebd52-8b9e-4bf2-ba8b-a731db41cbbd 1" clip-path="url(#clip0_14_396)">
<path id="Vector" d="M0.442589 9.65175C0.445203 9.40248 0.416609 9.1538 0.35739 8.9108C0.309584 8.69799 0.182972 8.50791 0 8.3743L1.43841 8.16675V12.1516C1.43713 12.1604 1.43802 12.1693 1.44101 12.1776C1.444 12.186 1.44902 12.1936 1.45566 12.1998C1.46231 12.206 1.4704 12.2108 1.47932 12.2136C1.48823 12.2164 1.49771 12.2172 1.50701 12.216C1.53357 12.216 1.59775 12.162 1.69622 12.0551C1.81578 11.9323 1.94485 11.8178 2.08238 11.7127C2.25929 11.5775 2.45149 11.4609 2.65553 11.365C2.88811 11.2555 3.14549 11.2004 3.40572 11.2042C3.76798 11.1942 4.12456 11.2903 4.42589 11.4792C4.70487 11.661 4.93452 11.9017 5.09641 12.1817C5.2675 12.4785 5.39055 12.7974 5.46154 13.1282C5.53537 13.4624 5.57245 13.8028 5.57219 14.1441C5.57432 14.5541 5.51775 14.9625 5.40401 15.3582C5.30106 15.7221 5.12697 16.0648 4.89061 16.369C4.65767 16.661 4.35434 16.8971 4.00543 17.0581C3.60919 17.2368 3.17364 17.3253 2.73409 17.3165C2.5355 17.3177 2.33703 17.3069 2.13992 17.2843C1.95956 17.2635 1.78253 17.2397 1.6066 17.2148C1.43067 17.1899 1.24699 17.1649 1.05336 17.1442C0.836318 17.1203 0.617962 17.1086 0.399436 17.1089C0.414189 16.5727 0.425623 16.0383 0.433737 15.5056C0.441851 14.9729 0.444802 14.4391 0.442589 13.9044V9.65175ZM4.40376 13.5422C4.35137 13.2743 4.26056 13.0142 4.13378 12.7691C4.02025 12.5487 3.85358 12.3562 3.64693 12.2066C3.43889 12.0602 3.18447 11.9834 2.92441 11.9887C2.7075 11.98 2.49193 12.0244 2.29888 12.1176C2.10585 12.2108 1.942 12.3494 1.82347 12.52C1.56676 12.8742 1.43841 13.3578 1.43841 13.9708V14.9556C1.43771 15.1982 1.45137 15.4407 1.47935 15.682C1.49844 15.8919 1.55964 16.0964 1.65971 16.2849C1.75401 16.4553 1.89789 16.5971 2.07463 16.6938C2.30314 16.807 2.56009 16.8602 2.81818 16.8474C3.11974 16.8594 3.41693 16.7765 3.66242 16.6118C3.88373 16.4536 4.06036 16.247 4.17693 16.0099C4.30138 15.7564 4.38562 15.4872 4.42699 15.2109C4.47007 14.936 4.49225 14.6586 4.49338 14.3807C4.49267 14.0993 4.46341 13.8185 4.40597 13.5422H4.40376Z" fill="white"/>
<path id="Vector_2" d="M7.23751 10.6449C7.23751 10.3564 7.22607 10.0613 7.20321 9.75969C7.18895 9.48174 7.09864 9.21192 6.94098 8.9762H8.75559C8.59792 9.21153 8.5076 9.48102 8.49336 9.75865C8.46975 10.0596 8.45832 10.3543 8.45906 10.6428V12.6259C8.64229 12.5905 8.81449 12.5163 8.9625 12.409C9.15318 12.2778 9.33329 12.1334 9.50135 11.9773C9.68614 11.8072 9.8676 11.6235 10.048 11.4242C10.2283 11.225 10.4031 11.032 10.5735 10.8452C10.9423 10.4384 11.2345 10.1035 11.4498 9.84063C11.6652 9.57773 11.7729 9.37018 11.7729 9.21799V9.07789C11.7742 9.04287 11.7697 9.00787 11.7596 8.97412H13.4315C13.1172 9.23771 12.8223 9.47984 12.5463 9.70054C12.244 9.94604 11.9583 10.2091 11.691 10.4882L9.60426 12.6259L11.8393 15.6478C12.0193 15.8948 12.217 16.1435 12.4323 16.3939C12.6478 16.6443 12.8591 16.8806 13.0664 17.1027H11.6545C11.6008 17.1057 11.5469 17.0987 11.496 17.0822C11.4451 17.0656 11.3982 17.0398 11.358 17.0062C11.2741 16.9316 11.1997 16.8481 11.1367 16.7572L8.71576 13.2901C8.68486 13.2435 8.65085 13.1988 8.61396 13.1562C8.57303 13.1095 8.53983 13.0856 8.51328 13.0856C8.50746 13.0852 8.50161 13.0858 8.49607 13.0876C8.49053 13.0893 8.48539 13.092 8.48097 13.0955C8.47655 13.0991 8.47292 13.1035 8.4703 13.1084C8.46768 13.1132 8.46612 13.1185 8.4657 13.124C8.46124 13.1494 8.45901 13.1751 8.45906 13.2008V15.432C8.45906 15.7205 8.47049 16.0159 8.49336 16.3182C8.50762 16.5964 8.59792 16.8666 8.75559 17.1027H6.94098C7.09896 16.8667 7.18929 16.5965 7.20321 16.3182C7.22681 16.0172 7.23824 15.7225 7.23751 15.434V10.6449Z" fill="white"/>
<path id="Vector_3" d="M17.1647 17.1868C17.1129 16.9983 17.076 16.8065 17.054 16.613C17.0397 16.4687 17.0065 16.3971 16.9534 16.3971C16.9343 16.3951 16.9151 16.3996 16.8991 16.4096L16.8726 16.4345C16.7819 16.5538 16.6933 16.6669 16.6081 16.7728C16.5214 16.8795 16.4185 16.974 16.3028 17.053C16.1757 17.1388 16.0339 17.2034 15.8834 17.2439C15.689 17.2946 15.4877 17.3184 15.2859 17.3145C14.8569 17.3265 14.4364 17.2005 14.0942 16.9575C13.7711 16.7188 13.6096 16.3657 13.6096 15.898C13.6004 15.6361 13.6885 15.3794 13.8586 15.1715C14.0335 14.9644 14.2436 14.7856 14.4804 14.6423C14.7332 14.4866 15.0001 14.3522 15.2782 14.2407C15.5622 14.1258 15.817 14.0173 16.0427 13.9148C16.2319 13.8287 16.3891 13.7571 16.5152 13.6969C16.6277 13.6464 16.7289 13.5759 16.8128 13.4894C16.889 13.405 16.9401 13.3034 16.9611 13.1947C16.9923 13.0338 17.006 12.8704 17.002 12.7069C17.012 12.4249 16.9322 12.1463 16.773 11.9068C16.6203 11.6882 16.3462 11.5789 15.9509 11.5789C15.6267 11.5789 15.3977 11.6432 15.2771 11.7698C15.1542 11.8928 15.056 12.0355 14.9872 12.1912C14.9236 12.3342 14.8497 12.4728 14.7659 12.6063C14.684 12.7339 14.5368 12.7972 14.3233 12.7972C14.1922 12.8055 14.0623 12.7687 13.9581 12.6934C13.9104 12.6498 13.8738 12.5969 13.8506 12.5384C13.8275 12.4799 13.8185 12.4173 13.8243 12.3551C13.8222 12.2551 13.8413 12.1557 13.8806 12.0626C13.92 11.9696 13.9786 11.8849 14.0533 11.8134C14.2184 11.6568 14.4156 11.5332 14.6331 11.4502C14.8812 11.3537 15.1415 11.2874 15.4076 11.253C15.678 11.2162 15.9509 11.1971 16.2242 11.196C16.4541 11.1949 16.6837 11.2099 16.9113 11.2406C17.1077 11.265 17.2986 11.3189 17.4767 11.4004C17.6326 11.4728 17.7648 11.5832 17.8596 11.72C17.9589 11.874 18.0082 12.0518 18.0012 12.2316V15.0429C18.0012 15.4261 18.0123 15.7986 18.0344 16.1605C18.0425 16.5007 18.1584 16.8309 18.3674 17.109L17.1647 17.1868ZM15.0259 16.3701C15.2405 16.5251 15.5065 16.6041 15.7772 16.5932C15.9616 16.5969 16.144 16.5555 16.3061 16.4729C16.4568 16.3936 16.588 16.2853 16.6911 16.1553C16.7973 16.0196 16.8758 15.8665 16.9224 15.7039C16.9712 15.5347 16.9961 15.3603 16.9965 15.185V13.8982L16.2651 14.2417C16.0117 14.36 15.7905 14.469 15.6012 14.5655C15.4305 14.6516 15.2696 14.7539 15.121 14.8706C14.9969 14.9677 14.8974 15.0898 14.83 15.2276C14.763 15.3736 14.7306 15.5315 14.7349 15.6904C14.7349 15.9955 14.8267 16.2228 15.0259 16.3701Z" fill="white"/>
<path id="Vector_4" d="M20.5725 13.0057C20.719 13.1818 20.8942 13.3352 21.0915 13.4603C21.308 13.5968 21.5334 13.7206 21.7664 13.8307C22.0038 13.9425 22.2294 14.0748 22.4403 14.2261C22.6424 14.3713 22.8177 14.5466 22.9592 14.745C23.1064 14.9668 23.1792 15.2249 23.1683 15.4859C23.1759 15.7651 23.1037 16.0409 22.9592 16.285C22.8207 16.5101 22.6319 16.7043 22.406 16.8547C22.1708 17.0105 21.9088 17.127 21.6314 17.1992C21.3528 17.2753 21.0641 17.3141 20.7739 17.3144C20.5176 17.3157 20.2617 17.292 20.0105 17.2438C19.759 17.1945 19.5124 17.125 19.2735 17.0363C19.2121 17.0165 19.1552 16.9863 19.1054 16.9471C19.082 16.9206 19.0645 16.8899 19.0541 16.8569C19.0436 16.8239 19.0404 16.7893 19.0445 16.7551C19.0445 16.6015 19.0534 16.448 19.0711 16.2954C19.0888 16.1418 19.1032 15.984 19.112 15.8222C19.2226 15.983 19.3233 16.1262 19.4229 16.2538C19.5158 16.3767 19.6277 16.4858 19.7549 16.5776C19.883 16.6695 20.0272 16.7396 20.1809 16.7852C20.3676 16.8362 20.5617 16.8601 20.7562 16.8557C21.1623 16.8557 21.4754 16.7675 21.6967 16.588C21.918 16.4085 22.0287 16.1366 22.0287 15.7703C22.0367 15.5418 21.9687 15.3165 21.8339 15.1258C21.6995 14.9473 21.5329 14.7921 21.3415 14.6671C21.1351 14.5296 20.9188 14.4055 20.6943 14.2956C20.4651 14.1842 20.2483 14.0518 20.047 13.9003C19.8494 13.7515 19.6828 13.5695 19.5557 13.3638C19.4167 13.1231 19.3491 12.8517 19.3599 12.5782C19.3599 12.0936 19.5413 11.748 19.9053 11.5321C20.2694 11.3163 20.7706 11.2125 21.4079 11.2125C21.6136 11.2123 21.8189 11.2272 22.022 11.2571C22.2245 11.2872 22.4281 11.3236 22.635 11.3609C22.6676 11.374 22.7013 11.3848 22.7357 11.3931C22.7568 11.3959 22.7761 11.406 22.7898 11.4213C22.8034 11.4366 22.8106 11.4562 22.8098 11.4761C22.8098 11.5955 22.8098 11.7366 22.8032 11.8985C22.7966 12.0604 22.7921 12.2098 22.7833 12.3447C22.6483 12.1911 22.5291 12.0652 22.4259 11.967C22.3324 11.8763 22.2255 11.7986 22.1083 11.7366C22.0049 11.682 21.8929 11.6431 21.7764 11.6214C21.6427 11.599 21.5072 11.5882 21.3714 11.5892C21.1233 11.5859 20.8795 11.6505 20.6699 11.775C20.5663 11.8389 20.4829 11.9276 20.4283 12.032C20.3736 12.1364 20.3497 12.2526 20.359 12.3686C20.3526 12.5974 20.4277 12.8216 20.5725 13.0057Z" fill="white"/>
<path id="Vector_5" d="M29.0282 15.7235C29.0282 15.9622 29.037 16.2061 29.0547 16.4582C29.0661 16.6835 29.1307 16.9036 29.2439 17.1027H28.0335V13.5972C28.0331 13.3924 28.0216 13.1877 27.9992 12.9839C27.9803 12.7925 27.9249 12.6059 27.8354 12.4329C27.7512 12.2738 27.6252 12.1373 27.4692 12.0365C27.2751 11.9255 27.0499 11.872 26.823 11.8829C26.6093 11.8675 26.3957 11.9132 26.21 12.0137C26.0244 12.1143 25.8755 12.2651 25.7829 12.4464C25.6843 12.6266 25.6196 12.8214 25.5915 13.0223C25.5606 13.2342 25.545 13.4478 25.545 13.6615V15.7204C25.545 15.9591 25.5543 16.2043 25.5727 16.4562C25.5831 16.6864 25.6595 16.9098 25.794 17.1027H24.3069C24.4376 16.9092 24.512 16.6871 24.5226 16.4582C24.5403 16.2071 24.5492 15.9625 24.5492 15.7246V9.65071C24.5501 9.40358 24.5368 9.15658 24.5093 8.9108C24.501 8.80582 24.469 8.7037 24.4154 8.61121C24.3617 8.51872 24.2878 8.43796 24.1984 8.3743L25.545 8.16675V11.7749C25.545 11.8258 25.545 11.8725 25.545 11.915C25.545 11.9576 25.5616 11.9783 25.5848 11.9783C25.6081 11.9783 25.6634 11.9379 25.7408 11.8569C25.8413 11.7574 25.9525 11.6681 26.0728 11.5902C26.2393 11.4806 26.4196 11.3907 26.6094 11.3225C26.8503 11.237 27.1066 11.1958 27.364 11.2011C27.8804 11.2011 28.2862 11.3287 28.5812 11.584C28.8763 11.8393 29.0237 12.2648 29.0237 12.8604L29.0282 15.7235Z" fill="white"/>
<path id="Vector_6" d="M27.7359 0.193848L39.1824 1.59375L36.4671 10.5048L27.7359 0.193848Z" fill="white"/>
<path id="Vector_7" d="M39.5885 1.63623L48.0951 12.244L38.2774 16.6575L37.0603 11.9877C37.0603 11.9877 36.7438 10.2909 37.2406 8.97821L39.5885 1.63623Z" fill="white"/>
<path id="Vector_8" d="M48.4115 12.16L45.2437 8.00078L50.5824 7.15295L48.4115 12.16Z" fill="white"/>
<path id="Vector_9" d="M50.9896 7.15295L52.9801 9.14748H50.0856L50.9896 7.15295Z" fill="white"/>
<path id="Vector_10" d="M39.9968 16.3608L48.095 12.5845L47.8228 13.4749L39.9968 16.3608Z" fill="white"/>
<path id="Vector_11" d="M36.4671 11.4387L33.0746 22.1315L38.2319 18.3116L36.4671 11.4387Z" fill="white"/>
<path id="Vector_12" d="M32.1695 5.9221L28.8666 1.97559L27.5997 2.01813L32.1695 5.9221Z" fill="white"/>
<path id="Vector_13" d="M36.9838 11.4014C37.0126 11.7583 37.0557 11.9908 37.0557 11.9908L38.2729 16.6606L48.0906 12.2471L47.9999 12.135L36.9838 11.4014Z" fill="white"/>
</g>
<defs>
<clipPath id="clip0_14_396">
<rect width="53" height="22" fill="white" transform="translate(0 0.193848)"/>
</clipPath>
</defs>
</svg>
