<svg width="22" height="23" viewBox="0 0 22 23" fill="none" xmlns="http://www.w3.org/2000/svg">
<g id="Frame" clip-path="url(#clip0_0_4709)">
<path id="Vector" d="M22 11.2607C22 5.18599 17.0748 0.260742 11 0.260742C4.92525 0.260742 0 5.18599 0 11.2607C0 16.7516 4.02233 21.3019 9.28125 22.1269V14.4407H6.48817V11.2598H9.28125V8.83799C9.28125 6.08158 10.9239 4.55808 13.4365 4.55808C14.6392 4.55808 15.8987 4.77349 15.8987 4.77349V7.48041H14.5108C13.1441 7.48041 12.7178 8.32833 12.7178 9.19824V11.2607H15.7685L15.2808 14.4416H12.7178V22.1278C17.9777 21.3019 22 16.7507 22 11.2607Z" fill="white"/>
</g>
<defs>
<clipPath id="clip0_0_4709">
<rect width="22" height="22" fill="white" transform="translate(0 0.193848)"/>
</clipPath>
</defs>
</svg>
