<svg width="22" height="23" viewBox="0 0 22 23" fill="none" xmlns="http://www.w3.org/2000/svg">
<g id="Instagram-Logo.wine 1" clip-path="url(#clip0_0_4703)">
<path id="Vector" d="M10.9985 0.376953C8.06049 0.376953 7.69177 0.3898 6.53784 0.442313C5.38615 0.495052 4.60003 0.677383 3.91218 0.944907C3.20066 1.22122 2.5971 1.59084 1.99579 2.19238C1.39403 2.79369 1.02441 3.39725 0.74719 4.10854C0.47899 4.79662 0.296434 5.58297 0.244597 6.7342C0.19321 7.88814 0.179688 8.25708 0.179688 11.1951C0.179688 14.1332 0.19276 14.5007 0.245047 15.6547C0.298011 16.8064 0.480342 17.5925 0.747641 18.2803C1.02418 18.9919 1.3938 19.5954 1.99534 20.1967C2.59642 20.7985 3.19998 21.169 3.91105 21.4453C4.59936 21.7129 5.3857 21.8952 6.53716 21.9479C7.6911 22.0004 8.05959 22.0133 10.9974 22.0133C13.9357 22.0133 14.3033 22.0004 15.4572 21.9479C16.6089 21.8952 17.3959 21.7129 18.0842 21.4453C18.7955 21.169 19.3982 20.7985 19.9992 20.1967C20.601 19.5954 20.9706 18.9919 21.2478 18.2806C21.5138 17.5925 21.6963 16.8061 21.7504 15.6549C21.8023 14.501 21.8158 14.1332 21.8158 11.1951C21.8158 8.25708 21.8023 7.88837 21.7504 6.73443C21.6963 5.58274 21.5138 4.79662 21.2478 4.10877C20.9706 3.39725 20.601 2.79369 19.9992 2.19238C19.3975 1.59062 18.7957 1.221 18.0835 0.944907C17.3939 0.677383 16.6073 0.495052 15.4556 0.442313C14.3017 0.3898 13.9343 0.376953 10.9954 0.376953H10.9985ZM10.028 2.32648C10.3161 2.32603 10.6375 2.32648 10.9985 2.32648C13.887 2.32648 14.2293 2.33684 15.37 2.38868C16.4247 2.43691 16.9972 2.61316 17.3785 2.76123C17.8834 2.95731 18.2433 3.1917 18.6217 3.57034C19.0004 3.94898 19.2348 4.30958 19.4313 4.81443C19.5794 5.19532 19.7558 5.76778 19.8038 6.82255C19.8557 7.96297 19.8669 8.30554 19.8669 11.1926C19.8669 14.0797 19.8557 14.4223 19.8038 15.5627C19.7556 16.6175 19.5794 17.19 19.4313 17.5708C19.2352 18.0757 19.0004 18.4352 18.6217 18.8136C18.2431 19.1922 17.8836 19.4266 17.3785 19.6227C16.9976 19.7714 16.4247 19.9472 15.37 19.9955C14.2296 20.0473 13.887 20.0586 10.9985 20.0586C8.10985 20.0586 7.7675 20.0473 6.62709 19.9955C5.57232 19.9468 4.99986 19.7705 4.61829 19.6225C4.11344 19.4264 3.75284 19.192 3.3742 18.8134C2.99557 18.4347 2.76117 18.075 2.56464 17.5699C2.41657 17.1891 2.2401 16.6166 2.19209 15.5618C2.14025 14.4214 2.12989 14.0788 2.12989 11.1899C2.12989 8.30103 2.14025 7.96026 2.19209 6.81985C2.24032 5.76508 2.41657 5.19261 2.56464 4.81127C2.76072 4.30643 2.99557 3.94582 3.3742 3.56719C3.75284 3.18855 4.11344 2.95416 4.61829 2.75763C4.99963 2.60888 5.57232 2.43308 6.62709 2.38462C7.62506 2.33955 8.01181 2.32603 10.028 2.32377V2.32648ZM16.7732 4.12274C16.5164 4.12274 16.2654 4.19889 16.0519 4.34156C15.8384 4.48422 15.672 4.687 15.5738 4.92423C15.4755 5.16147 15.4498 5.42252 15.5 5.67435C15.5501 5.92619 15.6738 6.1575 15.8554 6.33903C16.037 6.52057 16.2683 6.64417 16.5202 6.69421C16.772 6.74425 17.0331 6.71848 17.2703 6.62016C17.5075 6.52183 17.7102 6.35537 17.8528 6.14182C17.9954 5.92828 18.0714 5.67725 18.0714 5.42047C18.0714 4.70377 17.4899 4.12229 16.7732 4.12229V4.12274ZM10.9985 5.63954C7.93045 5.63954 5.44295 8.12704 5.44295 11.1951C5.44295 14.2632 7.93045 16.7496 10.9985 16.7496C14.0666 16.7496 16.5534 14.2632 16.5534 11.1951C16.5534 8.12704 14.0664 5.63954 10.9983 5.63954H10.9985ZM10.9985 7.58906C12.99 7.58906 14.6046 9.20345 14.6046 11.1951C14.6046 13.1866 12.99 14.8012 10.9985 14.8012C9.00686 14.8012 7.39247 13.1866 7.39247 11.1951C7.39247 9.20345 9.00686 7.58906 10.9985 7.58906Z" fill="white"/>
</g>
<defs>
<clipPath id="clip0_0_4703">
<rect width="22" height="22" fill="white" transform="translate(0 0.193848)"/>
</clipPath>
</defs>
</svg>
