<svg width="53" height="23" viewBox="0 0 53 23" fill="none" xmlns="http://www.w3.org/2000/svg">
<g id="logo.a4624c6 1" clip-path="url(#clip0_14_361)">
<g id="Clip path group">
<g id="Group">
<path id="Vector" d="M34.9441 5.98352H26.0527C25.9771 5.98352 25.9047 6.0124 25.8513 6.06379C25.7978 6.11513 25.7678 6.18479 25.7678 6.25745V6.91621C25.7678 6.98886 25.7978 7.05853 25.8513 7.10992C25.9047 7.16131 25.9771 7.19014 26.0527 7.19014H32.6771V10.7194C32.4872 10.4566 32.2762 10.2083 32.0462 9.97686C31.2646 9.2072 30.4289 8.8178 29.5579 8.8178C28.8658 8.8178 28.275 9.13702 27.7994 9.76634C27.4269 10.2396 27.2119 10.8102 27.1826 11.4031C27.1551 12.0827 27.3422 12.7543 27.7194 13.3295C27.9609 13.6695 28.2889 13.9443 28.6721 14.1278C29.0554 14.3113 29.481 14.3973 29.9087 14.3777C30.9351 14.3777 31.7708 13.685 31.7708 12.8338C31.7727 12.5841 31.7018 12.339 31.5661 12.1261C31.4305 11.9132 31.2355 11.7411 31.0033 11.6295L30.516 11.3555V11.8943C30.5144 11.9301 30.5097 11.9657 30.5019 12.0007L30.4878 12.0686C30.4169 12.2149 30.3047 12.3392 30.1641 12.4272C30.0234 12.5152 29.8599 12.5636 29.6921 12.5667C29.5331 12.5683 29.3755 12.5397 29.2279 12.4827C29.0805 12.4256 28.9463 12.341 28.8328 12.2339C28.6952 12.077 28.6261 11.875 28.6398 11.6702C28.6529 11.4152 28.7521 11.1712 28.9223 10.9752C29.0114 10.8595 29.128 10.7658 29.2622 10.702C29.3965 10.6382 29.5447 10.6062 29.6945 10.6085C30.5819 10.5881 31.3423 11.0069 31.9261 11.8536C32.3852 12.4803 32.64 13.2242 32.6582 13.9906L32.6771 15.7722L33.986 16.5622C34.0287 16.5866 34.0773 16.5998 34.1269 16.6007C34.1766 16.6016 34.2257 16.59 34.2693 16.5672C34.3129 16.5444 34.3497 16.5111 34.3759 16.4706C34.4022 16.43 34.4171 16.3836 34.4191 16.3359V7.19014H34.9441C34.9815 7.19014 35.0185 7.18308 35.0531 7.16932C35.0877 7.15556 35.119 7.13536 35.1455 7.10992C35.1719 7.08448 35.193 7.0543 35.2072 7.02107C35.2215 6.98785 35.2289 6.9522 35.2289 6.91621V6.25745C35.2289 6.22152 35.2215 6.18586 35.2072 6.15264C35.193 6.11941 35.1719 6.08923 35.1455 6.06379C35.119 6.03835 35.0877 6.01816 35.0531 6.00439C35.0185 5.99063 34.9815 5.98352 34.9441 5.98352Z" fill="white"/>
<path id="Vector_2" d="M52.7153 5.98361H41.4322C41.3948 5.98361 41.3577 5.99072 41.3231 6.00448C41.2886 6.01825 41.2572 6.03844 41.2307 6.06388C41.2043 6.08927 41.1833 6.1195 41.169 6.15273C41.1547 6.18596 41.1473 6.22155 41.1473 6.25754V7.45739C40.0691 6.35265 39.0946 5.80932 38.1835 5.80252C37.4182 5.76253 36.6624 5.98028 36.046 6.41825C35.773 6.59769 35.5484 6.83704 35.3908 7.11656C35.2332 7.39607 35.1471 7.70768 35.1397 8.02555C35.1397 9.92488 37.3478 9.90452 37.894 9.61023C38.003 9.53932 38.1298 9.49786 38.2612 9.49024C38.3462 9.48782 38.4307 9.50293 38.509 9.53458C38.5873 9.56628 38.6577 9.61378 38.7153 9.67392C38.7729 9.73399 38.8164 9.80529 38.8428 9.88297C38.8692 9.96065 38.8781 10.0429 38.8686 10.1241C38.8686 10.5655 38.2117 10.9391 37.4373 10.9391C37.0088 10.9391 36.731 10.8214 36.5545 10.5769L36.2108 10.0743L35.9754 10.6335C35.8988 10.792 35.8556 10.9636 35.8482 11.1383C35.8585 11.3735 35.9228 11.6037 36.0363 11.8123C36.1499 12.0208 36.3099 12.2027 36.5051 12.3449C36.905 12.6676 37.4119 12.8419 37.934 12.8362C38.3142 12.8516 38.6928 12.7801 39.0386 12.6274C39.3844 12.4747 39.6876 12.2452 39.9232 11.9578C40.3013 11.4812 40.5005 10.8955 40.4882 10.2962C40.4714 9.88557 40.3225 9.49007 40.0621 9.16425C39.7043 8.67077 39.2711 8.41946 38.7721 8.41946C38.559 8.43503 38.3488 8.47531 38.1459 8.53945C38.0508 8.56799 37.9541 8.5914 37.8563 8.60962C37.7322 8.59704 37.6178 8.53956 37.5361 8.44891C37.4797 8.39498 37.435 8.33079 37.4047 8.25999C37.3743 8.18925 37.359 8.11344 37.3596 8.03689C37.3784 7.56603 37.8092 7.09518 38.6049 7.09518H38.6402C39.1557 7.09518 39.6807 7.34417 40.1939 7.81728C40.5713 8.15529 40.8893 8.54977 41.1356 8.98543V15.7338L42.4491 16.4786C42.4929 16.505 42.5435 16.5191 42.5951 16.5194C42.6707 16.5194 42.7431 16.4905 42.7965 16.4391C42.8499 16.3878 42.8799 16.3181 42.8799 16.2454V7.19023H44.8903V13.0467L46.4911 13.6647C46.5246 13.6784 46.5607 13.6853 46.5971 13.6851C46.6663 13.6846 46.733 13.66 46.7849 13.6159C46.8369 13.5718 46.8705 13.5111 46.8795 13.4451V13.3998C47.1526 11.6771 47.9341 10.4795 49.2595 9.76191C49.2595 9.86153 49.2595 9.96793 49.2595 10.0811C49.2595 10.3188 49.276 10.9572 49.2925 11.3081C49.3042 11.5028 49.3113 11.6544 49.3301 11.7609C49.3367 12.5916 49.4514 13.4183 49.6715 14.2216C50.0999 15.6795 50.8486 16.0032 51.4041 16.0168H51.4394C51.7057 16.037 51.9695 15.9556 52.1739 15.7904C52.2476 15.7184 52.3052 15.6326 52.3433 15.5384C52.3813 15.4442 52.399 15.3435 52.3951 15.2426C52.4076 15.0261 52.3647 14.8101 52.2704 14.6132L52.1503 14.4027L51.9149 14.4593C51.7857 14.4995 51.6506 14.5194 51.5147 14.5181H51.4676C51.4212 14.5229 51.3745 14.5117 51.3358 14.4864C51.2487 14.4435 51.084 14.3008 50.9544 13.839C50.8761 13.4907 50.8327 13.1359 50.825 12.7795C50.825 10.8893 51.2322 9.45854 51.8608 9.13255L51.8937 9.11675C51.9404 9.09413 51.9796 9.05949 52.007 9.01674C52.0345 8.97398 52.049 8.92473 52.0491 8.87452C52.0494 8.82883 52.0381 8.78376 52.0162 8.7432L51.9973 8.70924C51.6795 8.12968 51.0416 7.70187 50.147 7.47318L50.0764 7.45507L50.0057 7.46641C49.3136 7.58414 48.4639 8.04823 47.4162 8.88581C47.1432 9.11218 46.8913 9.32045 46.6582 9.53328V7.19023H52.7248C52.8003 7.19023 52.8727 7.1614 52.9262 7.11001C52.9796 7.05862 53.0096 6.98896 53.0096 6.9163V6.25754C53.0096 6.18488 52.9796 6.11522 52.9262 6.06388C52.8727 6.01249 52.8003 5.98361 52.7248 5.98361" fill="white"/>
<path id="Vector_3" d="M20.7984 11.9126C20.7984 12.1888 20.7843 12.4627 20.7631 12.7343C20.6654 13.8838 20.3611 15.0082 19.8639 16.0576C19.6712 16.4657 19.4493 16.8606 19.2 17.2393C18.3459 18.5475 17.1883 19.6476 15.8179 20.4536C14.4476 21.2595 12.9017 21.7491 11.3016 21.8843C9.7015 22.0194 8.0906 21.7963 6.59516 21.2324C5.09973 20.6685 3.76044 19.7792 2.68231 18.6342C1.60416 17.4892 0.816473 16.1195 0.380983 14.6327C-0.0545052 13.1459 -0.125952 11.5823 0.172242 10.0644C0.470438 8.54661 1.13017 7.11588 2.09972 5.88433C3.06926 4.65276 4.32227 3.65391 5.7605 2.96606C5.48281 3.30512 5.23329 3.66467 5.01425 4.04137C4.99542 4.07306 4.97659 4.10249 4.96011 4.13418C4.82122 4.24284 4.68703 4.36056 4.55521 4.47149C4.42337 4.58242 4.23975 4.75899 4.08439 4.91293C4.05143 4.94689 4.01612 4.98084 3.98552 5.0148C3.95491 5.04875 3.91725 5.08497 3.88664 5.1212C3.85604 5.15742 3.77836 5.23891 3.72421 5.30004C3.61828 5.42228 3.51705 5.54453 3.41818 5.67356C2.98681 6.22313 2.62563 6.82052 2.34236 7.45293C2.31411 7.51628 2.28586 7.57968 2.25997 7.64309C2.23407 7.70644 2.19876 7.79246 2.17051 7.86946C2.1543 7.9072 2.14016 7.94573 2.12814 7.98488C2.08341 8.10035 2.04339 8.21125 2.00573 8.33355L1.9351 8.55993L1.89979 8.68217C1.88096 8.76137 1.85977 8.83837 1.84094 8.90854C1.77973 9.15979 1.73029 9.41336 1.69263 9.67143C1.69263 9.73709 1.67615 9.80276 1.66674 9.86836C1.65732 9.93402 1.6479 9.98383 1.6479 10.0359C1.6479 10.088 1.63378 10.1876 1.62907 10.2623C1.6304 10.2683 1.6304 10.2744 1.62907 10.2804L1.61495 10.5068C1.61495 10.6358 1.61495 10.7671 1.61495 10.8962C1.61568 12.8346 2.28701 14.7178 3.5232 16.2489C4.75939 17.7801 6.49018 18.8723 8.44284 19.3534C10.3956 19.8345 12.4592 19.6773 14.3088 18.9064C16.1583 18.1355 17.6886 16.7948 18.6586 15.0955C18.7433 14.9461 18.8257 14.7944 18.894 14.6428C18.8927 14.639 18.8927 14.6351 18.894 14.6314C19.423 13.5532 19.7162 12.3821 19.7555 11.1904C19.7555 11.0953 19.7555 11.0003 19.7555 10.9052C19.7555 10.62 19.7414 10.3393 19.7132 10.0631L19.7579 10.097C19.8992 10.208 20.0333 10.3234 20.1675 10.4457C20.2946 10.2397 20.4288 10.0427 20.5725 9.85025C20.6561 10.2367 20.7158 10.6275 20.7513 11.0207C20.7796 11.3127 20.7937 11.6092 20.7937 11.908" fill="white"/>
<path id="Vector_4" d="M19.7602 10.9098C19.7602 11.0049 19.7602 11.1 19.7602 11.195C19.7427 12.3894 19.4484 13.5649 18.8986 14.636C18.8986 14.636 18.8986 14.636 18.8986 14.6473C18.8233 14.8035 18.7432 14.9552 18.6632 15.1001C18.0062 16.2448 17.0918 17.234 15.9866 17.9955C14.6301 18.9345 13.0306 19.4953 11.364 19.6164C9.69734 19.7373 8.02837 19.4137 6.54074 18.681C5.05311 17.9484 3.80455 16.8353 2.93253 15.4642C2.06051 14.093 1.59886 12.5171 1.59839 10.9098C1.59839 10.7808 1.59839 10.6495 1.59839 10.5204L1.61251 10.294C1.61385 10.2881 1.61385 10.2819 1.61251 10.2759C1.61251 10.199 1.61251 10.122 1.63135 10.0496C1.65018 9.97713 1.63135 9.94543 1.65018 9.89562C1.66902 9.84581 1.66666 9.7643 1.67607 9.69869C1.71374 9.44062 1.76318 9.18705 1.82438 8.93575C1.84321 8.85655 1.8644 8.77955 1.88324 8.70937L1.91854 8.58713L1.98917 8.36076C2.02684 8.24303 2.06686 8.13438 2.11158 8.01214C2.1236 7.97299 2.13774 7.93441 2.15395 7.89667C2.1822 7.82198 2.21281 7.74504 2.24341 7.67029C2.27401 7.59561 2.29755 7.54354 2.3258 7.48239C2.61078 6.84213 2.97602 6.23776 3.41339 5.6827C3.51227 5.55366 3.61349 5.43141 3.71942 5.30916C3.77357 5.24804 3.82771 5.18692 3.88186 5.13033C3.936 5.07373 3.94542 5.06015 3.98073 5.02393L4.0796 4.92206C4.23654 4.77114 4.39348 4.62399 4.55042 4.48062C4.68225 4.3629 4.81643 4.25424 4.95533 4.14331C4.93884 4.175 4.92236 4.2067 4.90353 4.23839L4.84939 4.32442C4.30291 5.43316 3.96649 6.62676 3.85596 7.84917C3.82301 8.19553 3.80417 8.54866 3.80417 8.90636C3.80417 13.4724 6.59142 17.1715 10.0308 17.1715H10.0731C10.179 17.1715 10.285 17.1715 10.3932 17.1715C11.847 17.1721 13.2415 16.6179 14.2708 15.6307C15.3001 14.6434 15.8799 13.3038 15.883 11.9059C15.883 11.856 15.883 11.8086 15.883 11.761C15.8441 10.3721 15.2367 9.05415 14.1927 8.09365C16.1913 8.14301 18.1173 8.82405 19.6731 10.0315C19.6898 10.0422 19.7055 10.0544 19.7202 10.0677C19.7485 10.3439 19.7626 10.6246 19.7626 10.9098" fill="white"/>
<path id="Vector_5" d="M17.3238 5.47434C17.3238 5.47434 9.90844 4.12965 6.42438 10.3279C6.42438 10.3279 7.04114 6.0267 12.3379 4.09116L11.2997 2.20769C11.2997 2.20769 13.4184 0.36269 17.1378 0.842614L17.3238 5.47434Z" fill="white"/>
<path id="Vector_6" d="M8.12879 8.77737C8.12879 8.77737 11.0902 5.0557 17.863 6.02461L17.7806 3.85362C17.7806 3.85362 20.6055 3.7676 22.8937 5.66466L20.0734 9.75762C20.0734 9.75762 18.1384 7.59112 14.1247 7.5368C12.051 7.49195 9.9954 7.91689 8.12408 8.77737" fill="white"/>
<path id="Vector_7" d="M5.2119 12.1458C5.2119 12.1458 1.82908 5.04882 9.69172 0.475952L11.575 3.79694C10.6081 4.16135 9.71625 4.68793 8.94078 5.35217C7.46476 6.5814 5.84986 8.66638 5.22133 12.1436" fill="white"/>
<path id="Vector_8" d="M19.7745 10.1083C19.8004 10.3732 19.8145 10.6426 19.8145 10.9097C19.8145 11.0003 19.8145 11.0908 19.8145 11.1791V11.1972C19.7768 12.3944 19.4827 13.5712 18.9506 14.654C18.9515 14.6585 18.9515 14.6632 18.9506 14.6676C18.8799 14.8148 18.7975 14.9664 18.7152 15.1204C18.0491 16.273 17.1243 17.2683 16.0079 18.0339C14.6443 18.9762 13.037 19.5385 11.3625 19.6591C9.68807 19.7798 8.01149 19.4539 6.51718 18.7175C5.02283 17.9811 3.76865 16.8627 2.89256 15.4851C2.01648 14.1076 1.55242 12.5244 1.55145 10.9097C1.55145 10.7943 1.55145 10.6698 1.55145 10.5203L1.56558 10.2804V10.26C1.56558 10.1717 1.5797 10.097 1.58677 10.0336C1.59383 9.97024 1.58677 9.9431 1.60324 9.89555V9.8661C1.60324 9.80501 1.61972 9.74386 1.62914 9.68051C1.66681 9.42469 1.71624 9.16662 1.77745 8.91305C1.79157 8.8497 1.80805 8.7863 1.82453 8.72515V8.67765C1.8363 8.63687 1.84807 8.59388 1.86219 8.5531C1.87632 8.51237 1.90692 8.39921 1.93282 8.32672C1.97284 8.19771 2.01286 8.08224 2.05287 7.97585C2.05287 7.93964 2.07877 7.90342 2.0976 7.86038C2.12821 7.77892 2.15881 7.70418 2.18706 7.634C2.21531 7.56383 2.2365 7.51628 2.26945 7.44385C2.55607 6.80861 2.91869 6.20767 3.34998 5.6532C3.45592 5.51737 3.55714 5.39512 3.66072 5.27967C3.70545 5.22534 3.75959 5.16648 3.8208 5.09857C3.8514 5.06687 3.88436 5.02839 3.92202 4.99217L4.0209 4.88803C4.17156 4.73636 4.32693 4.58695 4.49171 4.44659C4.6565 4.30623 4.75773 4.22021 4.89662 4.10702L4.9437 4.09797L5.03786 4.021L4.9178 4.22927V4.24285C4.80952 4.32887 4.70123 4.41943 4.59765 4.51224C4.43757 4.6526 4.2822 4.79975 4.12683 4.95142L4.02796 5.05329L3.92909 5.15743L3.76901 5.33626C3.66778 5.45172 3.56891 5.56264 3.46298 5.70753C3.03513 6.25568 2.67637 6.85069 2.39422 7.48006C2.36126 7.55024 2.33537 7.61138 2.31418 7.66571C2.29299 7.72003 2.25298 7.81057 2.22237 7.89208C2.2059 7.93512 2.19177 7.97134 2.18 8.0053C2.13998 8.11169 2.10231 8.23167 2.05994 8.35391C2.03404 8.43086 2.0105 8.51011 1.98932 8.58029L1.954 8.70253L1.94224 8.74783C1.92576 8.80892 1.91163 8.87232 1.89515 8.93341C1.83395 9.18472 1.78451 9.44054 1.7492 9.69405C1.7492 9.7552 1.73037 9.81629 1.7233 9.87744V9.90689L1.70918 10.0427C1.70918 10.1083 1.69505 10.1808 1.69035 10.2691V10.2849C1.69035 10.3619 1.69035 10.4411 1.67387 10.5113C1.67387 10.6607 1.67387 10.7829 1.67387 10.8984C1.67505 12.494 2.13326 14.0586 2.99822 15.4203C3.86318 16.7819 5.10147 17.8882 6.57721 18.6176C8.05293 19.3471 9.70915 19.6716 11.364 19.5554C13.0189 19.4393 14.6085 18.8869 15.9585 17.9592C17.0467 17.1994 17.9476 16.2186 18.5974 15.0864C18.6869 14.9325 18.7669 14.7786 18.8328 14.6337V14.6178C19.3597 13.5464 19.6506 12.3819 19.6874 11.1972V11.1791C19.6874 11.0908 19.6874 11.0025 19.6874 10.912C19.6874 10.6313 19.6733 10.3506 19.645 10.0744V10.0269L19.7745 10.1083Z" fill="white"/>
<path id="Vector_9" d="M8.20404 13.9161L8.47946 14.1425C8.58332 14.0835 8.67509 14.0068 8.75018 13.9161C8.76941 13.896 8.78001 13.8698 8.78001 13.8425C8.78001 13.8152 8.76941 13.789 8.75018 13.7689H8.27937C8.24876 13.7689 8.23703 13.7689 8.23227 13.787C8.21268 13.8249 8.20684 13.8679 8.21583 13.9093" fill="white"/>
<path id="Vector_10" d="M8.64899 14.2535L8.82085 14.4527C8.82085 14.3531 8.80197 14.2263 8.79495 14.1267C8.74308 14.1655 8.6943 14.2078 8.64899 14.2535Z" fill="white"/>
<path id="Vector_11" d="M8.18753 14.1289C8.18753 14.2194 8.17103 14.3553 8.16162 14.4526L8.33587 14.2534C8.28989 14.2082 8.24029 14.1666 8.18753 14.1289Z" fill="white"/>
<path id="Vector_12" d="M10.1226 10.3892H10.1084C9.90127 10.4915 9.70148 10.6072 9.51056 10.7355C9.51056 10.7355 9.51056 10.7355 9.52467 10.7604C9.55076 10.7901 9.585 10.8121 9.62353 10.8238C9.70124 10.7808 10.0731 10.5635 10.1744 10.4843C10.1846 10.4783 10.1927 10.4694 10.1973 10.4589C10.2019 10.4483 10.203 10.4366 10.2003 10.4254C10.1937 10.4121 10.1834 10.4008 10.1705 10.3928C10.1576 10.3848 10.1426 10.3804 10.1273 10.3801" fill="white"/>
<path id="Vector_13" d="M10.405 10.2262C10.405 10.2465 10.3932 10.2783 10.3838 10.3257C10.3626 10.4 10.3468 10.4757 10.3367 10.5522C10.3745 10.5284 10.4064 10.4971 10.4303 10.4603C10.4543 10.4236 10.4698 10.3823 10.4756 10.3393C10.4832 10.3226 10.4871 10.3045 10.4871 10.2861C10.4871 10.2679 10.4832 10.2498 10.4756 10.233C10.4703 10.2273 10.4638 10.2226 10.4565 10.2195C10.4492 10.2164 10.4412 10.2148 10.4333 10.2148H10.4121" fill="white"/>
<path id="Vector_14" d="M10.664 10.8736C10.8265 10.8736 11.0948 11.1951 11.156 11.2924C11.2317 11.5115 11.2707 11.7407 11.2714 11.9716V11.9987C11.9965 11.9104 12.1259 11.7723 12.2131 11.2879C12.2303 11.0843 12.2056 10.8795 12.1401 10.6852C12.0747 10.491 11.9699 10.3111 11.8317 10.156C11.7156 10.1391 11.5981 10.1338 11.4809 10.1402C11.1749 10.1402 10.7747 10.156 10.6287 10.1605C10.6275 10.2104 10.6365 10.2599 10.6553 10.3064C10.674 10.3529 10.7021 10.3954 10.738 10.4313C10.7739 10.4673 10.8168 10.4961 10.8644 10.5161C10.9118 10.536 10.963 10.5468 11.0148 10.5476C11.069 10.5589 11.109 10.5657 11.116 10.6065V10.6563H11.0643H10.9418C10.877 10.6638 10.8112 10.6557 10.7504 10.6328C10.6896 10.6099 10.6357 10.5728 10.5934 10.525C10.4917 10.6338 10.3832 10.7366 10.2686 10.8329C10.2686 10.9121 10.2686 11.2132 10.2686 11.3445C10.3443 11.3688 10.4244 11.378 10.504 11.3716H10.5934C10.5934 11.2698 10.6123 11.0163 10.6123 10.9189V10.8736H10.664Z" fill="white"/>
<path id="Vector_15" d="M9.72495 11.0004C9.71226 11.0357 9.70786 11.0732 9.71191 11.1104C9.71596 11.1475 9.72846 11.1834 9.74847 11.2154C9.78557 11.2558 9.83184 11.2874 9.88365 11.3078C9.93552 11.3282 9.99156 11.3369 10.0474 11.3331C10.0663 11.1769 10.0757 10.8804 10.0804 10.7151C9.97447 10.8034 9.79087 10.9415 9.72495 11.0004Z" fill="white"/>
<path id="Vector_16" d="M9.48933 11.4757C9.81823 11.7272 10.1925 11.9183 10.5934 12.0394V11.5685C10.531 11.5543 10.4667 11.5497 10.4027 11.5549C10.3392 11.5549 10.2638 11.5549 10.1791 11.5549C9.94191 11.5411 9.71788 11.4455 9.54822 11.2855L9.53643 11.272V11.2561C9.53643 10.8962 9.38577 10.8622 9.30103 10.8441H9.27751C9.23606 10.8463 9.19592 10.8589 9.1612 10.8808C9.12643 10.9026 9.09838 10.933 9.07974 10.9686C9.07724 10.9736 9.07593 10.979 9.07593 10.9845C9.07593 10.9899 9.07724 10.9954 9.07974 11.0003C9.09153 11.0003 9.12446 11.0343 9.2257 11.0365C9.32693 11.0388 9.37398 11.1293 9.38339 11.2312C9.3797 11.2761 9.38625 11.3212 9.4025 11.3634C9.41876 11.4057 9.44437 11.444 9.4776 11.4757H9.48933Z" fill="white"/>
<path id="Vector_17" d="M9.15982 11.5437H9.19513V11.564L9.21872 11.6002C9.25165 11.6546 9.25873 11.6659 9.29167 11.6659C9.3025 11.6545 9.30983 11.6404 9.31287 11.6252C9.3221 11.5823 9.32204 11.5381 9.31269 11.4952C9.3034 11.4524 9.285 11.4118 9.25873 11.3761C9.15512 11.2471 9.09866 11.1837 8.96444 11.1792C8.89702 11.1978 8.83479 11.2305 8.78227 11.2752C8.72975 11.3198 8.68824 11.3752 8.66079 11.4373C8.65483 11.458 8.6568 11.4801 8.66633 11.4996C8.67579 11.5191 8.69217 11.5348 8.7126 11.5437C8.75857 11.5018 8.8018 11.4571 8.84206 11.4101L8.9268 11.4554C8.91102 11.4986 8.91102 11.5457 8.9268 11.5889C8.93287 11.5997 8.94121 11.6092 8.95139 11.6165C8.96152 11.624 8.97319 11.6292 8.98564 11.6319C8.99969 11.6342 9.01398 11.6342 9.02804 11.6319C9.04215 11.6319 9.04447 11.6319 9.05626 11.6048C9.06257 11.5846 9.07526 11.5668 9.09253 11.5538C9.10986 11.5408 9.13088 11.5333 9.15279 11.5323" fill="white"/>
<path id="Vector_18" d="M10.7818 11.2312V12.1571C10.8896 12.1306 10.9911 12.0845 11.0808 12.0212C11.0431 11.5685 10.9372 11.2787 10.7818 11.2357" fill="white"/>
<path id="Vector_19" d="M9.95093 11.9784C10.037 12.1526 10.1506 12.3129 10.2876 12.4538C10.304 12.4538 10.3558 12.4153 10.4806 12.2682C10.2983 12.1815 10.1215 12.0848 9.95093 11.9784Z" fill="white"/>
<path id="Vector_20" d="M11.2479 12.1798C11.0854 12.2898 10.9058 12.3746 10.7159 12.4311C10.6779 12.4418 10.641 12.4554 10.6053 12.4718C10.5912 12.4845 10.5801 12.5 10.5728 12.5172C10.5654 12.5344 10.5621 12.5529 10.5629 12.5715C10.5563 12.5898 10.5563 12.6097 10.5629 12.628C10.8555 12.5466 11.1412 12.4436 11.4174 12.3202C11.3708 12.2598 11.3093 12.2116 11.2385 12.1798" fill="white"/>
<path id="Vector_21" d="M13.8373 15.0458C13.8499 15.1344 13.8577 15.2235 13.8609 15.3129C13.8848 15.3081 13.9072 15.2983 13.9268 15.2842C13.9463 15.2701 13.9624 15.2521 13.9739 15.2314C13.9899 15.1151 13.9946 14.9977 13.988 14.8805C13.9845 14.8142 13.9845 14.7476 13.988 14.6813C13.9935 14.6565 14.0014 14.6322 14.0116 14.6089C14.0374 14.5364 14.0892 14.3825 14.0492 14.3304C14.0492 14.3304 14.0327 14.3078 13.9856 14.3078H13.7502C13.4202 14.3151 13.0902 14.2946 12.7638 14.2467C12.5247 14.1846 12.2792 14.1473 12.0317 14.1357C11.987 14.1319 11.9418 14.1381 11.8999 14.1538C11.7857 14.2243 11.6949 14.3249 11.6386 14.4436V14.4776L11.6033 14.4889H11.5774C11.5644 14.4884 11.5518 14.4852 11.5403 14.4792C11.5289 14.4734 11.5191 14.465 11.5115 14.4549C11.4832 14.4165 11.4879 14.3463 11.5303 14.2286L11.5585 14.1538C11.6541 13.9241 11.7197 13.6837 11.7539 13.4385C11.5468 13.529 11.1113 13.7667 10.9959 13.8301C11.0521 13.9968 11.1205 14.1595 11.2008 14.3168C11.3773 14.67 11.4738 14.7537 11.4974 14.756C11.5727 14.756 11.8081 14.7198 12.0788 14.6768C12.505 14.5987 12.9359 14.5465 13.3689 14.5206C13.4259 14.5185 13.4829 14.5238 13.5384 14.5364H13.5525V14.5477L13.5807 14.5839C13.7067 14.7095 13.7939 14.8663 13.8326 15.0367" fill="white"/>
<path id="Vector_22" d="M8.62063 12.1028C8.5877 12.1028 8.53351 12.1413 8.53351 12.284C8.53351 12.2998 8.55 12.3202 8.55941 12.3202C8.56882 12.3202 8.58532 12.3066 8.60652 12.2477V12.2183H9.80944C9.78145 12.1757 9.75703 12.131 9.73649 12.0847L8.62063 12.1028Z" fill="white"/>
<path id="Vector_23" d="M9.68706 10.2329C9.68706 10.2329 9.05142 10.3688 9.0703 10.0564C9.0703 9.95222 9.14325 9.91143 9.20679 9.92277C9.20679 9.86619 9.08203 9.6964 9.35983 9.63756C9.44106 9.54307 9.50913 9.43883 9.5623 9.32742C9.58815 9.24816 9.66586 9.13952 9.91776 9.19158C10.1366 9.25251 10.3316 9.37469 10.478 9.54245C10.624 9.54245 10.777 9.56964 10.7134 9.59678C10.6499 9.62397 10.6264 9.67829 10.6381 9.68737C10.6499 9.6964 10.7299 9.73944 10.4733 9.74395C10.4733 9.79602 10.5298 9.80961 10.5745 9.83449C10.6193 9.85937 10.5628 9.89107 10.5745 9.90241C10.5863 9.91375 10.6122 10.0337 10.4827 9.98618C10.3533 9.93862 10.3438 9.89564 10.3085 9.90015C10.2732 9.90466 10.1791 9.92052 10.1932 9.95447C10.2073 9.98843 10.3344 10.0677 10.172 10.0971C10.1391 10.1243 10.2214 10.1695 10.1602 10.1922C10.099 10.2148 9.82593 10.4186 9.68938 10.4706C9.5623 10.4706 9.52229 10.4367 9.53402 10.3846C9.54581 10.3325 9.60232 10.2986 9.68468 10.2895C9.68468 10.2555 9.68468 10.2284 9.67295 10.2329" fill="white"/>
<path id="Vector_24" d="M8.36411 12.465H7.81797L7.78027 12.2635H8.36411V12.465Z" fill="white"/>
<path id="Vector_25" d="M12.0907 12.4514H14.1175V12.1571H11.6858L12.0907 12.4514Z" fill="white"/>
<path id="Vector_26" d="M10.0167 13.0219H10.0285C10.3171 13.0652 10.6025 13.1264 10.8829 13.2053C10.9889 13.1555 11.0525 13.0876 11.0525 13.065L11.0266 12.9993H11.0995C11.1462 13.0059 11.1909 13.0213 11.2314 13.0446C11.276 13.0701 11.3258 13.0863 11.3773 13.0921C11.3882 13.0945 11.3994 13.0945 11.4103 13.0921C11.657 12.9473 11.893 12.7862 12.1165 12.6099C11.9942 12.5137 11.851 12.4448 11.6975 12.4084C11.6358 12.4279 11.5753 12.4506 11.5162 12.4764C11.2388 12.6107 10.9379 12.6944 10.6287 12.7231C10.5356 12.7284 10.4426 12.7112 10.358 12.6733C10.2402 12.733 10.1398 12.8202 10.0661 12.9269C10.019 12.9902 10.0143 13.0219 10.0167 13.0287" fill="white"/>
<path id="Vector_27" d="M10.1227 13.203C10.1768 13.203 10.7913 13.4294 10.9443 13.4C11.0973 13.3705 11.1279 13.2279 11.215 13.237C11.3021 13.246 11.3445 13.3207 11.4928 13.237C11.6542 13.1301 11.8047 13.0088 11.9424 12.8748C11.9424 12.9676 11.9424 13.2211 11.3751 13.4657C10.8078 13.7101 9.49182 14.0723 9.46353 14.2444C9.57829 14.2446 9.69078 14.214 9.78844 14.1561C9.85657 14.2187 9.90748 14.2965 9.9366 14.3826C9.96578 14.4687 9.97227 14.5605 9.95554 14.6496C9.92261 14.9213 9.70602 15.3921 9.70602 15.5234C9.70602 15.6547 9.70602 16.2388 9.70602 16.2976C9.70602 16.3565 9.81905 16.6915 9.65189 16.6667C9.54184 16.6461 9.42923 16.6408 9.31763 16.6508C9.25171 16.6508 9.11749 16.7662 9.00214 16.7504C8.88679 16.7346 8.68437 16.6779 8.6914 16.6236C8.69849 16.5693 8.83033 16.567 8.9433 16.5263C9.05633 16.4855 9.13166 16.3655 9.34818 16.2999C9.34818 16.1595 9.27524 15.1476 9.27524 14.9416C9.27524 14.7356 9.1999 14.2874 9.29643 14.0995C9.39297 13.9116 9.8873 13.194 10.1227 13.203Z" fill="white"/>
<path id="Vector_28" d="M10.0356 12.3654C10.0522 12.4229 10.0829 12.4756 10.125 12.5194L8.86557 12.4424C8.86557 12.4424 8.71961 12.3542 8.77613 12.3361L10.0356 12.3654Z" fill="white"/>
<path id="Vector_29" d="M7.44831 12.4741H7.70729C7.70729 12.4741 7.78965 12.4401 7.70729 12.345C7.62487 12.2499 7.4601 12.1956 7.57783 12.0281C7.45772 12.0077 7.2765 11.9715 7.30705 12.345H7.18229C7.16127 12.2776 7.11631 12.2193 7.05521 12.1804C6.99417 12.1416 6.92087 12.1245 6.84804 12.1323C6.50241 12.1875 6.16487 12.2825 5.84283 12.4152C6.17434 12.5071 6.51169 12.5782 6.85274 12.628C6.92015 12.622 6.98536 12.6015 7.0436 12.5683C7.10184 12.535 7.15162 12.4897 7.18938 12.4356H7.29764C7.31968 12.509 7.35213 12.5791 7.39417 12.6438C7.39417 12.7457 7.39417 12.8702 7.39417 12.8702C7.35815 12.8853 7.32843 12.9116 7.30961 12.9448C7.29085 12.978 7.28418 13.0163 7.29062 13.0536C7.30705 13.194 7.38715 13.1894 7.41067 13.1894C7.43419 13.1894 7.46951 13.1442 7.57074 13.1442C7.59325 13.0996 7.59754 13.0486 7.58271 13.0012C7.56788 12.9538 7.53501 12.9135 7.49071 12.8883C7.49071 12.8091 7.49071 12.7208 7.49071 12.7208C7.49071 12.7208 7.59665 12.6574 7.58253 12.5986C7.56836 12.5397 7.46248 12.5442 7.46248 12.465" fill="white"/>
<path id="Vector_30" d="M8.97375 13.6377C9.02973 13.5942 9.07011 13.5348 9.0891 13.4679C9.0891 13.4679 9.0891 12.9156 9.0891 12.7548C9.0891 12.5941 8.76896 12.4538 8.75479 12.4492H8.73597L8.72185 12.4628C8.67308 12.5081 8.6118 12.5387 8.54529 12.5511C8.50658 12.5536 8.46787 12.5468 8.43256 12.5314C8.39724 12.516 8.3664 12.4924 8.34287 12.4628H8.3287C8.07216 12.4628 7.94734 12.7616 7.94031 12.773V12.7843C7.92739 13.0037 7.92739 13.2236 7.94031 13.4431C7.96413 13.5118 8.0026 13.5751 8.05328 13.6287C8.00153 13.803 7.74022 14.7606 8.09098 14.8692V15.0073H8.93606V14.8602C9.25626 14.7198 9.05141 13.9049 8.98316 13.6672L8.97375 13.6377ZM8.00385 12.7639C8.02035 12.7277 8.12629 12.5081 8.31226 12.499C8.34204 12.5303 8.37854 12.5549 8.41916 12.5713C8.45977 12.5877 8.5036 12.5955 8.54767 12.5941C8.62389 12.5846 8.69529 12.553 8.75246 12.5036C8.84191 12.5398 9.02318 12.6349 9.02318 12.73C9.02318 12.8839 9.02318 13.3842 9.02318 13.4385C9.0099 13.4855 8.98298 13.528 8.94547 13.5608H8.77837V13.2597H8.21335V13.5608H8.098C8.05298 13.5146 8.0185 13.4598 7.99683 13.4C7.98331 13.1889 7.98331 12.9773 7.99683 12.7662L8.00385 12.7639ZM8.6018 14.7515H8.41344C8.39165 14.7515 8.37068 14.7432 8.3552 14.7283C8.33978 14.7135 8.33108 14.6933 8.33108 14.6723C8.33108 14.6513 8.33978 14.6311 8.3552 14.6163C8.37068 14.6014 8.39165 14.593 8.41344 14.593H8.6018C8.62365 14.593 8.64462 14.6014 8.66004 14.6163C8.67552 14.6311 8.68422 14.6513 8.68422 14.6723C8.68422 14.6933 8.67552 14.7135 8.66004 14.7283C8.64462 14.7432 8.62365 14.7515 8.6018 14.7515ZM8.90313 14.7719L8.48877 14.3192L8.10741 14.7719C7.85087 14.6927 8.01326 13.932 8.10741 13.6174L8.90545 13.6287C8.99495 13.9434 9.14091 14.6497 8.90545 14.7606" fill="white"/>
<path id="Vector_31" d="M8.73606 13.1668H8.78781V13.117C8.78781 13.1038 8.78239 13.0911 8.77268 13.0818C8.76297 13.0724 8.74975 13.0672 8.73606 13.0672H8.26525C8.25822 13.0669 8.25126 13.0679 8.24471 13.0703C8.2381 13.0727 8.23214 13.0763 8.22708 13.081C8.22202 13.0856 8.21797 13.0912 8.21523 13.0974C8.21249 13.1036 8.21106 13.1102 8.21106 13.117V13.1668H8.73368H8.73606Z" fill="white"/>
<path id="Vector_32" d="M8.051 15.048H8.00389V15.1023C8.00359 15.1093 8.00472 15.1163 8.00735 15.1229C8.00991 15.1295 8.01384 15.1355 8.0189 15.1406C8.02396 15.1457 8.03003 15.1497 8.03676 15.1524C8.04349 15.1552 8.05076 15.1566 8.05802 15.1566H8.93377C8.94878 15.1566 8.96313 15.1509 8.97373 15.1407C8.98433 15.1305 8.99029 15.1167 8.99029 15.1023V15.048H8.04861H8.051Z" fill="white"/>
</g>
</g>
</g>
<defs>
<clipPath id="clip0_14_361">
<rect width="53" height="22" fill="white" transform="translate(0 0.193848)"/>
</clipPath>
</defs>
</svg>
