<svg width="71" height="23" viewBox="0 0 71 23" fill="none" xmlns="http://www.w3.org/2000/svg">
<g id="Paytm-Logo.wine 1" clip-path="url(#clip0_0_4696)">
<path id="Vector" d="M70.7246 6.69349C70.0807 4.8761 68.3262 3.57104 66.2653 3.57104H66.2222C64.8824 3.57104 63.6751 4.12154 62.8156 5.00527C61.9547 4.12154 60.7473 3.57104 59.409 3.57104H59.3659C58.1883 3.57104 57.1118 3.99674 56.285 4.70141V4.34321C56.2568 3.98646 55.9594 3.70612 55.5921 3.70612H52.4309C52.0443 3.70612 51.7321 4.01439 51.7321 4.39751V21.3456C51.7321 21.7287 52.0443 22.037 52.4309 22.037H55.5921C55.9445 22.037 56.2345 21.7772 56.2806 21.441L56.2791 9.27423C56.2788 9.23354 56.2807 9.19286 56.285 9.15239C56.3356 8.60922 56.7385 8.16296 57.375 8.10716H57.9578C58.2239 8.13063 58.4485 8.22313 58.6254 8.36258C58.9005 8.57838 59.0536 8.91016 59.0536 9.27423L59.0655 21.3809C59.0655 21.764 59.3792 22.0737 59.7644 22.0737H62.9255C63.2988 22.0737 63.6021 21.7801 63.62 21.4146L63.6185 9.25808C63.617 8.85877 63.8044 8.49765 64.133 8.28331C64.2951 8.18052 64.4899 8.11157 64.7144 8.09101H65.2972C65.9812 8.14973 66.3946 8.66206 66.3931 9.25808L66.405 21.3486C66.405 21.7317 66.7188 22.04 67.1038 22.04H70.265C70.6502 22.04 70.9639 21.7317 70.9639 21.3486V8.34498C70.9639 7.45829 70.8628 7.08103 70.7245 6.69349H70.7246ZM49.3238 3.75027H47.5157V0.849493C47.5157 0.501569 47.2302 0.219727 46.8778 0.219727C46.8362 0.219727 46.796 0.225552 46.7574 0.232918C44.753 0.776088 45.1545 3.51687 41.4952 3.75027H41.1398C41.0862 3.75027 41.0357 3.75759 40.9866 3.76787H40.9837L40.9866 3.76933C40.6743 3.83836 40.4395 4.11139 40.4395 4.44025V7.5612C40.4395 7.94142 40.7532 8.25114 41.1398 8.25114H43.0475L43.0446 21.4852C43.0446 21.8625 43.3538 22.1678 43.7359 22.1678H46.8615C47.2421 22.1678 47.5514 21.8625 47.5514 21.4852L47.5529 8.25114H49.3238C49.7089 8.25114 50.0226 7.94142 50.0226 7.5612V4.44025C50.0226 4.06004 49.7089 3.75031 49.3238 3.75031" fill="white"/>
<path id="Vector_2" d="M37.9525 3.75038H34.7914C34.4062 3.75038 34.0939 4.06015 34.0939 4.44032V10.8937C34.0865 11.293 33.7594 11.613 33.3535 11.613H32.0301C31.6197 11.613 31.2881 11.2871 31.2881 10.8819L31.2762 4.44036C31.2762 4.06015 30.9625 3.75042 30.5774 3.75042H27.4162C27.0296 3.75042 26.7174 4.06015 26.7174 4.44036V11.5132C26.7174 14.1996 28.6578 16.1154 31.3803 16.1154C31.3803 16.1154 33.4234 16.1154 33.4858 16.1271C33.8546 16.1683 34.1415 16.4736 34.1415 16.8494C34.1415 17.2208 33.8605 17.5247 33.4962 17.5702C33.4784 17.5731 33.4621 17.5775 33.4427 17.5805L28.8198 17.5966C28.4332 17.5966 28.121 17.9063 28.121 18.2866V21.4061C28.121 21.7878 28.4332 22.096 28.8198 22.096H33.9884C36.7124 22.096 38.6514 20.1818 38.6514 17.4939V4.44036C38.6514 4.06015 38.3391 3.75042 37.9525 3.75042V3.75038ZM7.35427 9.46902V11.3951C7.35427 11.7987 7.02269 12.1276 6.6138 12.1276L4.60792 12.129V8.26965H6.6138C7.02269 8.26965 7.35427 8.59552 7.35427 9.00071V9.46902ZM7.63233 3.74963H0.72258C0.343407 3.74963 0.0371094 4.05353 0.0371094 4.42638V7.48425C0.0371094 7.49012 0.0385846 7.49599 0.0385846 7.50186C0.0385846 7.51655 0.0371094 7.53123 0.0371094 7.54443V21.3848C0.0371094 21.7606 0.322585 22.0674 0.676511 22.0762H3.89712C4.28224 22.0762 4.59595 21.768 4.59595 21.3863L4.60788 16.6431H7.63229C10.163 16.6431 11.9265 14.9094 11.9265 12.4006V7.99809C11.9265 5.48926 10.163 3.74968 7.63229 3.74968L7.63233 3.74963ZM20.4706 16.7961V17.2835C20.4706 17.3231 20.4647 17.3613 20.4587 17.398C20.4513 17.4324 20.4413 17.4663 20.429 17.4993C20.3308 17.7723 20.0543 17.9705 19.7256 17.9705H18.4097C17.9993 17.9705 17.6648 17.6622 17.6648 17.2835V16.6948C17.6648 16.6875 17.6633 16.6801 17.6633 16.6728L17.6648 15.1065V14.6161L17.6663 14.6117C17.6677 14.2344 17.9993 13.9291 18.4097 13.9291H19.7256C20.1375 13.9291 20.4706 14.2359 20.4706 14.6161L20.4706 16.7961ZM19.9681 3.76757H15.5816C15.1935 3.76757 14.8798 4.05823 14.8798 4.41494V5.62899C14.8798 5.63631 14.8813 5.64514 14.8813 5.65246C14.8813 5.66128 14.8798 5.67006 14.8798 5.67888V7.34215C14.8798 7.71945 15.2129 8.02772 15.6233 8.02772H19.8C20.1301 8.07911 20.3918 8.31693 20.429 8.68832V9.09055C20.3918 9.44434 20.1331 9.70267 19.8178 9.73205H17.7496C14.9988 9.73205 13.039 11.5363 13.039 14.07V17.6989C13.039 20.218 14.7237 22.0104 17.4551 22.0104H23.1872C24.2162 22.0104 25.0504 21.2412 25.0504 20.2944V8.45196C25.0504 5.58055 23.5515 3.76757 19.968 3.76757H19.9681Z" fill="white"/>
</g>
<defs>
<clipPath id="clip0_0_4696">
<rect width="71" height="22" fill="white" transform="translate(0 0.193848)"/>
</clipPath>
</defs>
</svg>
