<svg width="73" height="23" viewBox="0 0 73 23" fill="none" xmlns="http://www.w3.org/2000/svg">
<g id="PhonePe-Logo.wine 1" clip-path="url(#clip0_0_4662)">
<path id="ellipse30" d="M20.9824 13.2951C22.2061 8.38042 18.997 3.45555 13.8147 2.29507C8.63243 1.13458 3.43936 4.17793 2.21568 9.09258C0.991992 14.0072 4.20107 18.9321 9.38336 20.0926C14.5656 21.2531 19.7587 18.2097 20.9824 13.2951Z" fill="white"/>
<path id="path32" d="M50.7189 16.4195V13.0991C50.7189 12.2818 50.3957 11.8731 49.5877 11.8731C49.2646 11.8731 48.8875 11.9242 48.672 11.9753V16.8282C48.672 16.9814 48.5104 17.1346 48.3489 17.1346H47.11C46.9484 17.1346 46.7868 16.9814 46.7868 16.8282V11.158C46.7868 10.9536 46.9484 10.8004 47.11 10.7493C47.9179 10.4939 48.7259 10.3406 49.5877 10.3406C51.5269 10.3406 52.6042 11.3112 52.6042 13.0991V16.8792C52.6042 17.0325 52.4426 17.1857 52.281 17.1857H51.5269C51.0421 17.1857 50.7189 16.8282 50.7189 16.4195ZM55.5667 14.4273L55.5128 14.887C55.5128 15.5 55.9438 15.8576 56.644 15.8576C57.1826 15.8576 57.6674 15.7043 58.2061 15.4489C58.2599 15.4489 58.3138 15.3978 58.3677 15.3978C58.4754 15.3978 58.5293 15.4489 58.5831 15.5C58.637 15.5511 58.7447 15.7043 58.7447 15.7043C58.8524 15.8576 58.9602 16.0619 58.9602 16.2152C58.9602 16.4706 58.7986 16.726 58.5831 16.8282C57.9906 17.1346 57.2904 17.2879 56.5363 17.2879C55.6744 17.2879 54.9742 17.0836 54.4355 16.6749C53.8969 16.2152 53.5737 15.6022 53.5737 14.8359V12.8437C53.5737 11.2601 54.651 10.2896 56.4824 10.2896C58.2599 10.2896 59.2834 11.2091 59.2834 12.8437V14.0697C59.2834 14.2229 59.1218 14.3762 58.9602 14.3762H55.5667V14.4273ZM55.5128 13.3034H57.5597V12.7926C57.5597 12.1796 57.1826 11.771 56.5363 11.771C55.8899 11.771 55.5128 12.1285 55.5128 12.7926V13.3034ZM69.2483 14.4273L69.1944 14.887C69.1944 15.5 69.6254 15.8576 70.3256 15.8576C70.8642 15.8576 71.349 15.7043 71.8877 15.4489C71.9415 15.4489 71.9954 15.3978 72.0493 15.3978C72.157 15.3978 72.2109 15.4489 72.2647 15.5C72.3186 15.5511 72.4263 15.7043 72.4263 15.7043C72.534 15.8576 72.6418 16.0619 72.6418 16.2152C72.6418 16.4706 72.4802 16.726 72.2647 16.8282C71.6722 17.1346 70.972 17.2879 70.2179 17.2879C69.356 17.2879 68.6558 17.0836 68.1171 16.6749C67.5785 16.2152 67.2553 15.6022 67.2553 14.8359V12.8437C67.2553 11.2601 68.3326 10.2896 70.164 10.2896C71.9415 10.2896 72.965 11.2091 72.965 12.8437V14.0697C72.965 14.2229 72.8034 14.3762 72.6418 14.3762H69.2483V14.4273ZM69.1944 13.3034H71.2413V12.7926C71.2413 12.1796 70.8642 11.771 70.2179 11.771C69.5715 11.771 69.1944 12.1285 69.1944 12.7926V13.3034ZM37.5221 17.1857H38.2762C38.4378 17.1857 38.5994 17.0325 38.5994 16.8792V13.0991C38.5994 11.3623 37.6298 10.3406 36.0139 10.3406C35.5291 10.3406 34.9904 10.4428 34.6673 10.545V8.65491C34.6673 8.24625 34.2902 7.88867 33.8593 7.88867H33.1052C32.9436 7.88867 32.782 8.04192 32.782 8.19517V16.8792C32.782 17.0325 32.9436 17.1857 33.1052 17.1857H34.3441C34.5057 17.1857 34.6673 17.0325 34.6673 16.8792V12.0775C34.9366 11.9753 35.3136 11.9242 35.583 11.9242C36.3909 11.9242 36.7141 12.2818 36.7141 13.1502V16.4706C36.768 16.8282 37.0912 17.1857 37.5221 17.1857ZM45.6556 12.8948V14.7848C45.6556 16.3684 44.5245 17.339 42.6392 17.339C40.8078 17.339 39.6228 16.3684 39.6228 14.7848V12.8948C39.6228 11.3112 40.754 10.3406 42.6392 10.3406C44.5245 10.3406 45.6556 11.3112 45.6556 12.8948ZM43.7704 12.8948C43.7704 12.2818 43.3933 11.8731 42.6931 11.8731C41.9928 11.8731 41.6158 12.2307 41.6158 12.8948V14.7848C41.6158 15.3978 41.9928 15.7554 42.6931 15.7554C43.3933 15.7554 43.7704 15.3978 43.7704 14.7848V12.8948ZM31.7586 12.0264C31.7586 13.661 30.4658 14.7848 28.7422 14.7848C28.3112 14.7848 27.9342 14.7338 27.5571 14.5805V16.8792C27.5571 17.0325 27.3955 17.1857 27.2339 17.1857H25.9951C25.8335 17.1857 25.6719 17.0325 25.6719 16.8792V8.75708C25.6719 8.55275 25.8335 8.3995 25.9951 8.34842C26.803 8.093 27.611 7.93975 28.4728 7.93975C30.412 7.93975 31.7586 9.06358 31.7586 10.8004V12.0264ZM29.8194 10.6982C29.8194 9.8809 29.2269 9.47224 28.419 9.47224C27.9342 9.47224 27.611 9.62548 27.611 9.62548V12.9969C27.9342 13.1502 28.0958 13.2013 28.4728 13.2013C29.2808 13.2013 29.8733 12.7415 29.8733 11.9753V10.6982H29.8194ZM66.5551 12.0264C66.5551 13.661 65.2623 14.7848 63.5387 14.7848C63.1077 14.7848 62.7307 14.7338 62.3536 14.5805V16.8792C62.3536 17.0325 62.192 17.1857 62.0304 17.1857H60.7916C60.63 17.1857 60.4684 17.0325 60.4684 16.8792V8.75708C60.4684 8.55275 60.63 8.3995 60.7916 8.34842C61.5995 8.093 62.4075 7.93975 63.2693 7.93975C65.2085 7.93975 66.5551 9.06358 66.5551 10.8004V12.0264ZM64.616 10.6982C64.616 9.8809 64.0234 9.47224 63.2155 9.47224C62.7307 9.47224 62.4075 9.62548 62.4075 9.62548V12.9969C62.7307 13.1502 62.8923 13.2013 63.2693 13.2013C64.0773 13.2013 64.6698 12.7415 64.6698 11.9753V10.6982H64.616Z" fill="white"/>
<path id="path36" d="M15.9753 8.80815C15.9753 8.45057 15.6521 8.14407 15.2751 8.14407H13.9823L11.0198 4.92586C10.7505 4.61937 10.3196 4.5172 9.88864 4.61937L8.86521 4.92586C8.70362 4.97695 8.64975 5.18128 8.75748 5.28344L11.9894 8.19516H7.08768C6.92609 8.19516 6.81836 8.29732 6.81836 8.45057V8.9614C6.81836 9.31898 7.14155 9.62547 7.5186 9.62547H8.2727V12.0774C8.2727 13.9164 9.29613 14.9892 11.0198 14.9892C11.5584 14.9892 11.9894 14.9381 12.528 14.7337V16.3684C12.528 16.8281 12.9051 17.1857 13.3898 17.1857H14.1439C14.3055 17.1857 14.4671 17.0325 14.4671 16.8792V9.57439H15.706C15.8676 9.57439 15.9753 9.47223 15.9753 9.31898V8.80815ZM12.528 13.2013C12.2048 13.3545 11.7739 13.4056 11.4507 13.4056C10.5889 13.4056 10.158 12.9969 10.158 12.0774V9.62547H12.528V13.2013Z" fill="black"/>
</g>
<defs>
<clipPath id="clip0_0_4662">
<rect width="73" height="22" fill="white" transform="translate(0 0.193848)"/>
</clipPath>
</defs>
</svg>
