<svg width="22" height="23" viewBox="0 0 22 23" fill="none" xmlns="http://www.w3.org/2000/svg">
<g id="Telegram_(software)-X-Black-Logo.wine 1" clip-path="url(#clip0_0_4705)">
<path id="Subtract" fill-rule="evenodd" clip-rule="evenodd" d="M21.9882 11.1948C21.9882 17.2623 17.0694 22.181 11.0019 22.181C4.93435 22.181 0.015625 17.2623 0.015625 11.1948C0.015625 5.12722 4.93435 0.208496 11.0019 0.208496C17.0694 0.208496 21.9882 5.12722 21.9882 11.1948ZM11.9848 8.05018L4.58641 11.0984L4.58568 11.0985C3.28381 11.6064 4.04589 12.0827 4.04589 12.0827C4.04589 12.0827 5.15724 12.4637 6.10975 12.7495C7.06226 13.0352 7.57038 12.7177 7.57038 12.7177L12.0475 9.70123C13.6351 8.62156 13.254 9.51062 12.873 9.89166C12.0476 10.7172 10.6821 12.0191 9.53903 13.0669C9.031 13.5114 9.28497 13.8925 9.50726 14.0829C10.1536 14.6298 11.6755 15.6241 12.367 16.0759C12.5588 16.2013 12.6868 16.2849 12.7143 16.3055C12.873 16.4326 13.7611 17.0041 14.3018 16.8771C14.8426 16.7501 14.9061 16.0198 14.9061 16.0198L15.6999 11.0348C15.7698 10.5715 15.8398 10.1178 15.9051 9.69423C16.077 8.57951 16.2166 7.67374 16.2396 7.35164C16.3349 6.27214 15.1918 6.71663 15.1918 6.71663C15.1918 6.71663 12.7151 7.73268 11.9848 8.05018Z" fill="white"/>
</g>
<defs>
<clipPath id="clip0_0_4705">
<rect width="22" height="22" fill="white" transform="translate(0 0.193848)"/>
</clipPath>
</defs>
</svg>
