<svg width="22" height="23" viewBox="0 0 22 23" fill="none" xmlns="http://www.w3.org/2000/svg">
<g id="ton_symbol 1" clip-path="url(#clip0_0_4699)">
<path id="Vector" d="M11 22.1938C17.0751 22.1938 22 17.269 22 11.1938C22 5.11872 17.0751 0.193848 11 0.193848C4.92487 0.193848 0 5.11872 0 11.1938C0 17.269 4.92487 22.1938 11 22.1938Z" fill="white"/>
<path id="Vector_2" fill-rule="evenodd" clip-rule="evenodd" d="M7.93869 7.46342L14.1083 7.46338C14.3265 7.46338 14.5447 7.49544 14.7726 7.6017C15.0458 7.72907 15.1907 7.92982 15.2922 8.07828C15.3001 8.08983 15.3075 8.10173 15.3143 8.11391C15.4337 8.32637 15.4952 8.55576 15.4952 8.80251C15.4952 9.03697 15.4394 9.2924 15.3143 9.51504C15.3132 9.5172 15.3119 9.51928 15.3107 9.5214L11.4129 16.2171C11.3269 16.3647 11.1687 16.4553 10.9979 16.4547C10.827 16.4541 10.6694 16.3624 10.5845 16.2141L6.75827 9.53275C6.75717 9.53095 6.75607 9.52914 6.75497 9.52729C6.6674 9.383 6.53199 9.15985 6.5083 8.87189C6.48653 8.60706 6.54605 8.34173 6.67911 8.11167C6.81217 7.88158 7.01249 7.69764 7.25343 7.58505C7.51177 7.46432 7.77357 7.46342 7.93869 7.46342ZM10.5213 8.41991H7.93869C7.76901 8.41991 7.70388 8.43036 7.65835 8.45165C7.59537 8.48104 7.54249 8.5294 7.50713 8.59053C7.47178 8.65169 7.45579 8.72257 7.4616 8.79352C7.46494 8.83418 7.48152 8.88069 7.5793 9.04196C7.58135 9.04534 7.58335 9.04875 7.58531 9.05217L10.5213 14.1789V8.41991ZM11.4778 8.41991V14.2043L14.4818 9.04404C14.5157 8.98244 14.5387 8.89342 14.5387 8.80251C14.5387 8.72877 14.5234 8.66474 14.4892 8.59874C14.4534 8.54715 14.4315 8.51985 14.4132 8.50115C14.3976 8.48516 14.3855 8.4766 14.3685 8.46866C14.2974 8.43554 14.2248 8.41991 14.1083 8.41991H11.4778Z" fill="#171717"/>
</g>
<defs>
<clipPath id="clip0_0_4699">
<rect width="22" height="22" fill="white" transform="translate(0 0.193848)"/>
</clipPath>
</defs>
</svg>
