<svg width="22" height="23" viewBox="0 0 22 23" fill="none" xmlns="http://www.w3.org/2000/svg">
<g id="Frame">
<path id="Vector" d="M21.9569 4.38305C21.1333 4.74569 20.2607 4.98506 19.3673 5.09347C20.3079 4.52812 21.0122 3.64151 21.3501 2.59739C20.4783 3.10614 19.5122 3.47647 18.4837 3.68272C17.8051 2.95711 16.906 2.47586 15.9258 2.31368C14.9457 2.1515 13.9395 2.31748 13.0634 2.78584C12.1872 3.25421 11.4903 3.99874 11.0807 4.90383C10.6711 5.80893 10.5719 6.82393 10.7983 7.79122C7.04917 7.6143 3.72808 5.81305 1.50333 3.09239C1.09889 3.77972 0.887942 4.56366 0.892833 5.36114C0.892833 6.92864 1.69033 8.30639 2.8985 9.1158C2.18245 9.09301 1.48222 8.89941 0.856167 8.55114V8.60614C0.855761 9.64783 1.21575 10.6576 1.87505 11.4641C2.53435 12.2706 3.45236 12.8242 4.47333 13.0309C3.81177 13.2082 3.11888 13.2348 2.44567 13.1088C2.73545 14.0053 3.29786 14.789 4.05443 15.3505C4.811 15.912 5.72399 16.2234 6.666 16.2411C5.07057 17.4932 3.1006 18.1727 1.0725 18.1706C0.715 18.1706 0.358417 18.1496 0 18.1092C2.06773 19.4332 4.47197 20.136 6.92725 20.1341C15.2258 20.1341 19.7588 13.2628 19.7588 7.31455C19.7588 7.12205 19.7588 6.92955 19.745 6.73705C20.6305 6.09984 21.3943 5.30872 22 4.40139L21.9569 4.38305Z" fill="white"/>
</g>
</svg>
