<svg width="64" height="23" viewBox="0 0 64 23" fill="none" xmlns="http://www.w3.org/2000/svg">
<g id="Unified_Payments_Interface-Logo.wine 1" clip-path="url(#clip0_0_4666)">
<path id="XMLID_65_" d="M0.546064 19.043H1.02464L0.57645 20.8452C0.508082 21.1101 0.523275 21.316 0.614433 21.4485C0.705591 21.5809 0.872714 21.6471 1.1234 21.6471C1.36649 21.6471 1.57159 21.5809 1.73112 21.4485C1.89065 21.316 1.997 21.1101 2.06536 20.8452L2.51356 19.043H2.99973L2.54394 20.8894C2.44519 21.2866 2.27047 21.5882 2.01219 21.7868C1.76151 21.9855 1.42726 22.0884 1.01705 22.0884C0.606836 22.0884 0.325765 21.9928 0.173835 21.7942C0.0219051 21.5956 -0.00848079 21.294 0.0902738 20.8967L0.546064 19.043Z" fill="white"/>
<path id="XMLID_63_" d="M2.92969 22.0074L3.68934 18.9252L5.13267 20.7348C5.17066 20.7863 5.20864 20.8378 5.24662 20.8966C5.2846 20.9555 5.32259 21.0217 5.36817 21.0953L5.87713 19.0429H6.32533L5.56568 22.1178L4.09195 20.2714L3.97801 20.1169C3.94002 20.058 3.90964 20.0065 3.88685 19.9403L3.37788 22.0001H2.92969V22.0074Z" fill="white"/>
<path id="XMLID_61_" d="M6.28711 22.0075L7.01637 19.043H7.50255L6.77329 22.0075H6.28711Z" fill="white"/>
<path id="XMLID_59_" d="M7.46484 22.0075L8.19411 19.043H9.85774L9.75899 19.4549H8.58153L8.39921 20.1905H9.57667L9.47032 20.6098H8.29286L7.95102 22.0002H7.46484V22.0075Z" fill="white"/>
<path id="XMLID_57_" d="M9.66821 22.0075L10.3975 19.043H10.8837L10.1544 22.0075H9.66821Z" fill="white"/>
<path id="XMLID_55_" d="M10.8457 22.0075L11.575 19.043H13.2386L13.1398 19.4549H11.9624L11.7801 20.1979H12.9575L12.8512 20.6172H11.6737L11.4382 21.5735H12.6157L12.5093 22.0075H10.8457Z" fill="white"/>
<path id="XMLID_52_" d="M13.0723 22.0075L13.8015 19.043H14.4548C14.8802 19.043 15.1765 19.065 15.336 19.1092C15.4956 19.1533 15.6323 19.2195 15.7386 19.3225C15.8754 19.4549 15.9665 19.6241 16.0045 19.8227C16.0425 20.0287 16.0273 20.2641 15.9665 20.5216C15.8982 20.7864 15.7994 21.0144 15.6627 21.2204C15.5259 21.4264 15.3512 21.5882 15.1461 21.7206C14.9942 21.8236 14.8271 21.8898 14.6447 21.934C14.47 21.9781 14.2041 22.0002 13.8547 22.0002H13.0723V22.0075ZM13.6648 21.5661H14.075C14.2953 21.5661 14.47 21.5514 14.5916 21.522C14.7131 21.4926 14.8195 21.4411 14.9182 21.3749C15.055 21.2793 15.1689 21.1616 15.2601 21.0144C15.3512 20.8747 15.4196 20.7055 15.4652 20.5142C15.5107 20.3229 15.5259 20.1611 15.5031 20.0213C15.4804 19.8816 15.4272 19.7565 15.336 19.6609C15.2677 19.5873 15.1841 19.5432 15.0701 19.5138C14.9562 19.4843 14.7815 19.4696 14.5308 19.4696H14.1814L13.6648 21.5661Z" fill="white"/>
<path id="XMLID_49_" d="M18.1985 20.676L17.8718 22.0075H17.416L18.1453 19.043H18.8821C19.1024 19.043 19.2544 19.0577 19.3531 19.0797C19.4519 19.1018 19.5278 19.1386 19.5886 19.1974C19.6646 19.2637 19.7178 19.3593 19.7405 19.477C19.7633 19.5947 19.7557 19.7197 19.7254 19.8595C19.6874 19.9993 19.6342 20.1317 19.5506 20.2494C19.4671 20.3671 19.3683 20.4627 19.262 20.5289C19.1708 20.5804 19.0721 20.6246 18.9657 20.6466C18.8594 20.6687 18.6922 20.6834 18.4795 20.6834H18.1985V20.676ZM18.3276 20.2788H18.4491C18.715 20.2788 18.9049 20.2494 19.0113 20.1905C19.1176 20.1317 19.186 20.0287 19.224 19.8816C19.262 19.7271 19.2392 19.6094 19.1632 19.5505C19.0797 19.4843 18.9125 19.4549 18.6618 19.4549H18.5403L18.3276 20.2788Z" fill="white"/>
<path id="XMLID_46_" d="M21.3738 22.0074L21.2219 21.2424H20.0368L19.5051 22.0074H18.9961L21.1991 18.9252L21.8828 22.0074H21.3738ZM20.3255 20.8378H21.1535L21.0168 20.161C21.0092 20.1169 21.0016 20.0654 21.0016 20.0139C20.994 19.955 20.994 19.8962 20.994 19.83C20.9636 19.8962 20.9332 19.955 20.8952 20.0139C20.8648 20.0727 20.8345 20.1242 20.8041 20.1684L20.3255 20.8378Z" fill="white"/>
<path id="XMLID_44_" d="M22.5823 22.0075L22.9166 20.654L22.3088 19.0503H22.8178L23.1976 20.0581C23.2052 20.0875 23.2128 20.1169 23.228 20.1611C23.2432 20.2052 23.2508 20.2494 23.266 20.2935L23.3572 20.1611C23.3875 20.1169 23.4179 20.0802 23.4483 20.0434L24.3371 19.0503H24.8233L23.4027 20.6466L23.0685 22.0001H22.5823V22.0075Z" fill="white"/>
<path id="XMLID_42_" d="M27.2094 20.5435C27.2094 20.5215 27.217 20.4553 27.2322 20.3523C27.2398 20.264 27.2474 20.1978 27.255 20.1389C27.2246 20.2052 27.1942 20.2714 27.1562 20.3449C27.1182 20.4111 27.0727 20.4847 27.0195 20.5509L25.8496 22.1325L25.4698 20.5215C25.4546 20.4553 25.4394 20.3891 25.4318 20.3302C25.4242 20.2714 25.4166 20.2052 25.4166 20.1463C25.4014 20.2052 25.3786 20.2714 25.3559 20.3449C25.3331 20.4111 25.3027 20.4847 25.2647 20.5583L24.581 22.0148H24.1328L25.5989 18.9252L26.0167 20.7937C26.0243 20.8231 26.0319 20.8746 26.0395 20.9408C26.0471 21.007 26.0623 21.0953 26.0775 21.1982C26.1307 21.11 26.1991 21.007 26.2902 20.8746C26.313 20.8378 26.3358 20.8157 26.3434 20.7937L27.6652 18.9252L27.6196 22.0148H27.1714L27.2094 20.5435Z" fill="white"/>
<path id="XMLID_40_" d="M28.0138 22.0075L28.7431 19.043H30.4067L30.3079 19.4549H29.1305L28.9482 20.1979H30.1256L30.0193 20.6172H28.8418L28.6063 21.5735H29.7838L29.6774 22.0075H28.0138Z" fill="white"/>
<path id="XMLID_38_" d="M30.2324 22.0074L30.9921 18.9252L32.4354 20.7348C32.4734 20.7863 32.5114 20.8378 32.5494 20.8966C32.5873 20.9555 32.6253 21.0217 32.6709 21.0953L33.1799 19.0429H33.6281L32.8684 22.1178L31.3947 20.2714L31.2807 20.1169C31.2428 20.058 31.2124 20.0065 31.1896 19.9403L30.6806 22.0001H30.2324V22.0074Z" fill="white"/>
<path id="XMLID_36_" d="M35.1766 19.4475L34.5461 22.0001H34.0599L34.6904 19.4475H33.9004L33.9991 19.0355H36.0654L35.9666 19.4475H35.1766Z" fill="white"/>
<path id="XMLID_34_" d="M35.6862 21.4116L36.1192 21.235C36.1268 21.3675 36.1648 21.4704 36.2484 21.5367C36.3319 21.6029 36.4459 21.6396 36.5978 21.6396C36.7422 21.6396 36.8637 21.6029 36.97 21.5219C37.0764 21.441 37.1448 21.338 37.1752 21.2056C37.2207 21.0291 37.1144 20.8746 36.8561 20.7422C36.8181 20.7201 36.7953 20.7054 36.7725 20.698C36.4839 20.5362 36.3016 20.3964 36.2256 20.264C36.1496 20.1316 36.1344 19.9771 36.18 19.7932C36.2408 19.5505 36.3699 19.3592 36.575 19.2047C36.7801 19.0576 37.008 18.9767 37.2815 18.9767C37.5018 18.9767 37.6765 19.0208 37.8057 19.1017C37.9348 19.1827 38.0032 19.3077 38.026 19.4622L37.6006 19.6535C37.5626 19.5578 37.517 19.4916 37.4562 19.4475C37.3955 19.4033 37.3195 19.3813 37.2283 19.3813C37.0992 19.3813 36.9852 19.4181 36.8941 19.4843C36.8029 19.5505 36.7422 19.6387 36.7118 19.7564C36.6662 19.933 36.7953 20.1022 37.0916 20.2567C37.1144 20.2714 37.1296 20.2787 37.1448 20.2861C37.4031 20.4185 37.5778 20.5509 37.6537 20.6833C37.7297 20.8157 37.7449 20.9702 37.6993 21.1688C37.631 21.4484 37.4866 21.6691 37.2663 21.8383C37.046 22.0001 36.7877 22.0884 36.4839 22.0884C36.2332 22.0884 36.0357 22.0295 35.8989 21.9118C35.747 21.7941 35.6786 21.6249 35.6862 21.4116Z" fill="white"/>
<path id="XMLID_32_" d="M39.2637 22.0075L39.9929 19.043H40.4791L39.7499 22.0075H39.2637Z" fill="white"/>
<path id="XMLID_30_" d="M40.4492 22.0074L41.2089 18.9252L42.6522 20.7348C42.6902 20.7863 42.7282 20.8378 42.7662 20.8966C42.8041 20.9555 42.8421 21.0217 42.8877 21.0953L43.3967 19.0429H43.8449L43.0852 22.1178L41.6115 20.2714L41.4975 20.1169C41.4596 20.058 41.4292 20.0065 41.4064 19.9403L40.8974 22.0001H40.4492V22.0074Z" fill="white"/>
<path id="XMLID_28_" d="M45.3954 19.4475L44.7648 22.0001H44.2787L44.9092 19.4475H44.1191L44.2179 19.0355H46.2841L46.1854 19.4475H45.3954Z" fill="white"/>
<path id="XMLID_26_" d="M45.918 22.0075L46.6472 19.043H48.3185L48.2197 19.4549H47.0422L46.8599 20.1979H48.0374L47.931 20.6172H46.7536L46.5181 21.5735H47.6955L47.5892 22.0075H45.918Z" fill="white"/>
<path id="XMLID_23_" d="M48.9194 20.676L48.5928 22.0001H48.137L48.8662 19.0355H49.5423C49.7398 19.0355 49.8918 19.0502 49.9905 19.0723C50.0969 19.0944 50.1804 19.1385 50.2412 19.1974C50.3172 19.2709 50.3628 19.3592 50.3855 19.4769C50.4083 19.5872 50.4007 19.7123 50.3704 19.8521C50.3096 20.0875 50.2108 20.2787 50.0589 20.4111C49.907 20.5435 49.7171 20.6245 49.4892 20.6539L50.1804 22.0001H49.6335L48.9726 20.676H48.9194ZM49.041 20.3008H49.1321C49.3904 20.3008 49.5651 20.2714 49.6639 20.2125C49.7626 20.1537 49.831 20.0507 49.869 19.8962C49.907 19.7344 49.8918 19.6167 49.8158 19.5505C49.7398 19.4843 49.5803 19.4475 49.3372 19.4475H49.2461L49.041 20.3008Z" fill="white"/>
<path id="XMLID_21_" d="M50.4767 22.0075L51.206 19.043H52.8696L52.7708 19.4549H51.5934L51.4111 20.1905H52.5885L52.4822 20.6098H51.3047L50.9629 22.0002H50.4767V22.0075Z" fill="white"/>
<path id="XMLID_18_" d="M54.4871 22.0074L54.3351 21.2424H53.1501L52.6183 22.0074H52.1094L54.3124 18.9252L54.996 22.0074H54.4871ZM53.4312 20.8378H54.2592L54.1224 20.161C54.1149 20.1169 54.1073 20.0654 54.1073 20.0139C54.0997 19.955 54.0997 19.8962 54.0997 19.83C54.0693 19.8962 54.0389 19.955 54.0009 20.0139C53.9705 20.0727 53.9401 20.1242 53.9097 20.1684L53.4312 20.8378Z" fill="white"/>
<path id="XMLID_16_" d="M58.1575 19.7638C58.0511 19.6461 57.922 19.5579 57.7853 19.5064C57.6485 19.4475 57.4966 19.4181 57.3219 19.4181C56.9952 19.4181 56.7066 19.5211 56.4483 19.727C56.19 19.933 56.0229 20.2052 55.9393 20.5362C55.8633 20.8525 55.8937 21.1174 56.0457 21.3307C56.19 21.5367 56.4179 21.6397 56.7218 21.6397C56.8965 21.6397 57.0712 21.6102 57.2459 21.544C57.4206 21.4852 57.5954 21.3896 57.7777 21.2645L57.6409 21.8089C57.489 21.9045 57.3295 21.9707 57.1624 22.0148C56.9952 22.059 56.8281 22.081 56.6458 22.081C56.4179 22.081 56.2128 22.0443 56.0381 21.9707C55.8633 21.8971 55.719 21.7868 55.6051 21.6397C55.4911 21.4999 55.4227 21.3307 55.3924 21.1394C55.362 20.9482 55.3696 20.7422 55.4303 20.5215C55.4835 20.3008 55.5747 20.1022 55.6962 19.911C55.8178 19.7197 55.9773 19.5505 56.1596 19.4107C56.3419 19.2636 56.5394 19.1533 56.7521 19.0797C56.9648 19.0061 57.1775 18.9694 57.3978 18.9694C57.5726 18.9694 57.7321 18.9914 57.884 19.0429C58.0284 19.0944 58.1651 19.168 58.2866 19.271L58.1575 19.7638Z" fill="white"/>
<path id="XMLID_14_" d="M58.2031 22.0075L58.9324 19.043H60.596L60.4973 19.4549H59.3198L59.1375 20.1979H60.315L60.2086 20.6172H59.0311L58.7957 21.5735H59.9731L59.8668 22.0075H58.2031Z" fill="white"/>
<path id="XMLID_11_" d="M49.3603 16.4609H46.0254L50.6593 0.255127H53.9941L49.3603 16.4609Z" fill="white"/>
<path id="XMLID_10_" d="M47.6271 0.762758C47.3992 0.453797 47.0422 0.299316 46.556 0.299316H28.2333L27.3293 3.4772H43.996L43.0237 6.86842H29.6918V6.86106H26.3569L23.5918 16.5345H26.9267L28.7802 10.0463H43.7681C44.2391 10.0463 44.6797 9.89183 45.0899 9.58287C45.5001 9.2739 45.7736 8.89138 45.9027 8.4353L47.7563 1.94711C47.9006 1.4616 47.855 1.07172 47.6271 0.762758Z" fill="white"/>
<path id="XMLID_7_" d="M21.6486 15.4458C21.4663 16.0858 20.8586 16.5345 20.1749 16.5345H2.98401C2.51303 16.5345 2.16359 16.38 1.93569 16.0711C1.7078 15.7621 1.65462 15.3796 1.79136 14.9235L5.98463 0.299316H9.3195L5.57442 13.364H18.9139L22.659 0.299316H25.9938L21.6486 15.4458Z" fill="white"/>
<path id="XMLID_5_" d="M55.1035 16.5271L59.7526 0.284546L63.9686 8.40581L55.1035 16.5271Z" fill="white"/>
<path id="XMLID_4_" d="M52.1327 16.5271L56.7893 0.284546L61.0054 8.40581L52.1327 16.5271Z" fill="white"/>
</g>
<defs>
<clipPath id="clip0_0_4666">
<rect width="64" height="22" fill="white" transform="translate(0 0.193848)"/>
</clipPath>
</defs>
</svg>
