<svg width="260" height="66" viewBox="0 0 260 66" fill="none" xmlns="http://www.w3.org/2000/svg">
<g opacity="0.26">
<path d="M179.857 34.064L149.919 24.165L182.2 15.8299L187.319 23.5804L179.857 34.064Z" fill="#641124"/>
<path d="M222.435 23.554C219.799 15.0789 217.989 7.90108 217.238 6.13724C215.043 1.0454 210.834 0.763718 207.169 0.920973C197.401 1.3205 193.462 2.52558 176.031 4.80981C173.465 5.17022 168.612 5.93479 166.15 4.71081C159.629 1.50377 157.799 -0.621907 154.478 -0.681484C149.333 -0.753595 138.281 2.78366 125.902 9.56807C122.034 11.658 122.053 14.7408 121.138 16.6355C121.102 16.7324 121.086 16.8357 121.091 16.9389C121.097 17.0422 121.123 17.1433 121.169 17.2362C121.214 17.329 121.279 17.4117 121.357 17.479C121.436 17.5464 121.528 17.5971 121.627 17.628C123.25 18.0064 141.005 21.8786 141.816 22.0985C141.702 22.0195 141.611 21.9109 141.554 21.7844C141.497 21.6579 141.476 21.5184 141.493 21.3808C141.506 21.2558 141.555 21.1373 141.633 21.0387C141.711 20.9401 141.816 20.8655 141.934 20.8232C147.42 18.7345 167.295 11.3036 179.106 8.33286C195.271 4.27221 199.066 4.06259 203.799 4.22744C205.054 4.31641 206.3 4.49258 207.53 4.75467C207.962 4.83713 208.362 5.04193 208.681 5.3446C209 5.64728 209.225 6.03504 209.329 6.46156C210.65 12.9464 215.054 27.7874 217.745 32.8511C217.535 33.1417 217.258 33.3787 216.939 33.543C216.619 33.7073 216.265 33.7942 215.905 33.7968C215.041 33.6853 213.498 31.8501 212.53 30.7497C212.422 30.6373 212.282 30.5605 212.129 30.5298C211.976 30.4991 211.817 30.5158 211.674 30.5778C191.772 39.5339 177.832 42.7677 175.835 43.1938C175.755 43.2177 175.672 43.2246 175.59 43.214C175.507 43.2034 175.428 43.1755 175.357 43.1323L166.387 38.4187C166.981 37.8693 167.487 37.2325 167.887 36.5303C168.104 36.1847 168.246 35.7973 168.303 35.3933C168.43 33.8733 167.024 33.3617 166.383 33.1945C163.958 32.5821 97.9118 14.0242 81.2413 10.1689C74.1763 8.48952 66.8859 11.3057 63.4396 14.7867L63.4269 14.8849L71.7316 26.0115C71.8199 26.1316 71.9439 26.221 72.086 26.2669C72.2281 26.3128 72.381 26.3129 72.5231 26.2672L80.4862 23.7913C80.4862 23.7913 81.1077 27.0978 80.0759 27.5102C73.3901 30.1201 66.9556 32.3938 60.7097 34.6994C58.1993 35.6431 57.974 37.9878 56.7912 41.1845C56.2945 42.5263 55.9726 43.7676 55.9726 43.7676C55.9726 43.7676 69.9298 38.9074 78.4504 36.1116C78.5959 36.0716 78.75 36.0754 78.8934 36.1226C79.0368 36.1698 79.163 36.2583 79.2561 36.3768C80.2427 37.7486 80.577 38.0836 81.2375 38.9369C81.3068 39.0253 81.3541 39.1288 81.3755 39.2389C81.397 39.349 81.3919 39.4626 81.3607 39.5703C81.3295 39.678 81.2731 39.7768 81.1961 39.8585C81.1192 39.9402 81.0238 40.0025 80.918 40.0403C78.8935 40.8009 76.8055 41.5764 75.1898 42.2745C73.9092 42.8237 74.7952 45.3347 74.7952 45.3347L97.9681 37.8452C97.9681 37.8452 99.1513 39.3652 96.5576 40.5363C92.5285 42.3827 55.8623 55.4375 52.889 55.1309C45.0606 54.3517 32.214 37.8151 27.2008 34.8641C22.9489 32.4029 17.7252 34.8481 10.6361 37.8362C8.71852 38.6643 9.47959 41.3667 9.47959 41.3667L19.5963 37.7857C19.5963 37.7857 20.5957 39.2973 19.1792 39.9443C14.1958 42.2591 7.16594 44.31 6.05578 44.912C4.40153 45.7895 4.34468 50.8906 4.34468 50.8906L13.8698 47.894C13.9966 47.8498 14.1329 47.8397 14.265 47.8649C14.397 47.89 14.5201 47.9494 14.6218 48.0371L31.5264 68.838C32.7854 68.7029 34.0296 68.4545 35.2436 68.096L21.3729 48.9845C21.3149 48.8917 21.2777 48.7875 21.2637 48.6791C21.2496 48.5707 21.2592 48.4605 21.2917 48.3561C21.3241 48.2517 21.3788 48.1555 21.4518 48.0741C21.5249 47.9926 21.6147 47.9278 21.7151 47.8841C23.468 47.2574 25.5166 46.9071 28.0178 49.3806C30.1242 51.4498 37.445 59.0925 45.4409 59.4093C48.1077 59.5228 48.0413 60.3362 48.0413 60.3362C48.0413 60.3362 44.4761 61.5127 40.2173 63.1681C38.1139 64.003 39.3428 67.0806 39.3428 67.0806C60.7805 61.3953 87.2298 54.2515 90.9036 53.189C91.0341 53.1529 91.1718 53.152 91.3028 53.1864C91.4337 53.2209 91.5532 53.2894 91.6489 53.3849L96.9378 58.7991C97.6039 60.2062 141.565 49.5595 155.32 44.7117C156.123 44.4618 162.626 45.6001 165.798 45.9785C167.261 46.1671 167.118 46.794 167.118 46.794C167.118 46.794 56.8693 74.9334 31.2763 70.6571L25.4526 72.3181C28.401 74.8493 27.1638 78.4078 32.992 76.2941C33.2204 77.0917 33.502 77.8962 33.7916 78.817C34.5604 81.2207 34.5535 81.2736 41.8078 79.8124C62.3697 75.7195 154.206 60.7613 175.08 55.1417C186.861 51.9827 203.142 47.622 213.558 42.9121C223.819 38.2743 226.149 35.502 222.435 23.554ZM137.743 13.054C136.444 13.7468 128.795 11.2777 128.795 11.2777C128.795 11.2777 138.464 4.71233 146.837 4.79353C149.331 4.81554 154.048 7.37507 154.048 7.37507C154.048 7.37507 142.39 10.5421 137.743 13.054ZM165.03 8.85287L153.135 13.0802C153.135 13.0802 150.744 11.1817 153.832 10.2433C154.634 10.001 156.464 9.25376 157.952 8.70823C158.135 8.63936 158.295 8.51962 158.411 8.36317C158.528 8.20672 158.598 8.02013 158.611 7.82548C158.625 7.63084 158.583 7.4363 158.489 7.2649C158.395 7.09351 158.254 6.95244 158.083 6.85839L150.211 2.47088C151.08 1.95083 152.059 1.64145 153.069 1.56765C154.08 1.49384 155.094 1.65767 156.03 2.04594C157.187 2.57161 161.954 5.33737 165.088 7.14731C165.28 7.19891 165.448 7.31359 165.566 7.47269C165.684 7.63179 165.745 7.82596 165.738 8.02362C165.731 8.22128 165.658 8.4108 165.529 8.56136C165.401 8.71192 165.225 8.81466 165.03 8.85287ZM164.338 36.2033C163.039 37.672 160.107 40.3358 156.441 39.2484C154.654 38.7031 82.255 14.0791 82.0751 14.0405C81.5706 13.8295 81.7821 12.7275 82.7149 12.963L163.983 35.0129C164.094 35.0533 164.194 35.1187 164.275 35.2039C164.357 35.2892 164.417 35.392 164.452 35.5044C164.486 35.6167 164.495 35.7356 164.476 35.8516C164.457 35.9676 164.411 36.0776 164.342 36.1731L164.338 36.2033Z" fill="#641124"/>
<path d="M222.429 9.25693C222.349 9.259 222.271 9.26945 222.193 9.28809C222.114 9.30167 222.04 9.33743 221.98 9.39123L222.765 9.28486L222.429 9.25693Z" fill="#641124"/>
<path d="M245.791 68.9396C245.49 66.3734 243.06 49.3135 241.202 42.9284L231.967 19.8902C230.63 21.3122 229.173 22.6175 227.612 23.7916C227.343 23.9641 227.053 24.1023 226.75 24.2028C226.379 24.3046 225.994 24.3407 225.611 24.3094L229.358 46.3403C229.882 49.8647 231.76 53.0491 233.321 56.2387C234.111 57.8155 239.673 68.9417 241.819 73.2131C241.922 73.4196 242.074 73.5978 242.263 73.7316C242.451 73.8655 242.67 73.9511 242.899 73.9806C243.128 74.0102 243.361 73.9829 243.578 73.9012C243.794 73.8195 243.986 73.6859 244.138 73.5122C244.709 72.9005 245.149 72.1802 245.433 71.3945C245.717 70.6087 245.839 69.7737 245.791 68.9396ZM243.063 71.5759L242.897 71.785L242.767 71.5378C242.687 71.3815 234.809 55.8698 232.012 49.8937C231.166 48.0945 232.516 47.4236 232.516 47.4236L232.671 47.3591L232.754 47.4927C233.165 48.1834 242.706 64.5395 243.838 67.4739C244.078 68.1661 244.133 68.9086 243.997 69.6281C243.861 70.3475 243.539 71.0189 243.063 71.5759Z" fill="#641124"/>
<path d="M224.181 -14.7993C223.444 -19.419 221.564 -22.5883 219.989 -25.7949C219.207 -27.4323 213.416 -38.9337 211.387 -43.0363C211.298 -43.2125 211.167 -43.3643 211.006 -43.4784C210.845 -43.5925 210.658 -43.6654 210.462 -43.6907C210.266 -43.716 210.067 -43.6929 209.882 -43.6235C209.697 -43.554 209.532 -43.4403 209.401 -43.2924C208.798 -42.6363 208.333 -41.8659 208.034 -41.0269C207.735 -40.1878 207.608 -39.2973 207.662 -38.4083C207.98 -35.8553 210.266 -18.8678 212.124 -12.4827L220.601 8.17639C220.916 7.89231 221.288 7.67837 221.692 7.54882C221.966 7.4709 222.251 7.44016 222.536 7.45793C223.996 7.5464 226.261 7.84623 228.309 8.15646L224.181 -14.7993ZM220.836 -16.7671L220.689 -16.7015L220.607 -16.8427C220.204 -17.54 210.677 -33.8866 209.516 -36.8325C209.297 -37.5259 209.259 -38.263 209.403 -38.9751C209.547 -39.6871 209.87 -40.351 210.342 -40.905L210.513 -41.098L210.637 -40.8668C210.715 -40.6954 218.629 -25.1638 221.39 -19.2076C222.206 -17.4123 220.849 -16.75 220.832 -16.7368L220.836 -16.7671Z" fill="#641124"/>
<path d="M234.7 10.8397C231.798 9.7972 226.15 9.02266 222.742 8.79828C222.619 8.77446 222.495 8.75847 222.371 8.75038L222.121 8.77199C222.039 8.79827 221.961 8.8375 221.891 8.88819C221.677 8.99981 221.504 9.175 221.394 9.38944C221.285 9.60389 221.246 9.84694 221.282 10.0849C222.428 14.5806 223.5 18.0989 224.968 22.2445C225.103 22.5004 225.324 22.6999 225.594 22.8065C225.863 22.9131 226.161 22.9198 226.435 22.8253C226.551 22.7836 226.664 22.7313 226.771 22.6689C230.217 20.1374 233.153 16.9792 235.422 13.3604C236.119 12.2596 235.913 11.2881 234.7 10.8397ZM224.138 15.3619L222.891 11.1681C222.859 11.0785 222.848 10.983 222.858 10.8885C222.867 10.7939 222.898 10.7028 222.948 10.6216C222.997 10.5405 223.064 10.4714 223.144 10.4193C223.224 10.3673 223.314 10.3336 223.409 10.3208C223.47 10.2939 223.534 10.2764 223.6 10.2687C223.6 10.2687 230.787 10.9421 232.967 11.6687C234.126 12.0639 234.109 12.492 234.109 12.492L224.138 15.3619Z" fill="#641124"/>
<path d="M198.138 7.24647C198.138 7.24647 196.071 12.6414 193.113 18.7895L189.812 13.3168L186.434 14.356L191.294 22.4343C188.844 27.15 186.033 31.7422 183.327 34.3815L189.488 32.4951C190.972 31.442 192.362 29.0939 193.578 26.2318L196.256 30.6869L199.657 29.643L195.108 22.1425C197.086 16.0602 198.291 9.40939 198.138 7.24647Z" fill="#641124"/>
</g>
</svg>
